<svg xmlns="http://www.w3.org/2000/svg" xmlns:xlink="http://www.w3.org/1999/xlink" width="1024" zoomAndPan="magnify" viewBox="0 0 768 767.999994" height="1024" preserveAspectRatio="xMidYMid meet" version="1.0"><defs><g/></defs><rect x="-76.8" width="921.6" fill="#ffffff" y="-76.799999" height="921.599993" fill-opacity="1"/><path fill="#00bf63" d="M 555.582031 314.398438 C 555.433594 333.800781 554.496094 355.226562 554.496094 374.625 C 554.496094 384.746094 555.058594 392.976562 555.359375 401.578125 C 555.359375 401.710938 555.378906 401.859375 555.378906 401.992188 C 541.039062 417.304688 527.261719 433.125 514.308594 449.660156 C 513.632812 449.585938 512.957031 449.507812 512.285156 449.433594 C 497.796875 447.785156 482.875 447.148438 468.347656 447.578125 C 434.742188 448.570312 401.054688 449.003906 367.429688 448.347656 C 350.523438 448.007812 333.652344 449.058594 316.761719 448.234375 C 299.742188 447.410156 282.253906 450.316406 265.421875 448.910156 C 260.867188 448.535156 257.71875 447.035156 255.582031 444.824219 C 250.144531 439.21875 251.179688 430.242188 251.515625 423.152344 C 252.058594 411.851562 252.546875 400.566406 252.675781 389.246094 C 253.089844 357.585938 252.957031 325.925781 252.769531 294.289062 C 252.660156 275.132812 250.820312 260.058594 251.214844 240.941406 C 251.382812 232.75 248.875 222.910156 252.152344 215.785156 C 257.699219 203.773438 281.226562 204.613281 291.628906 204.710938 C 317.230469 204.933594 341.503906 203.472656 367.28125 203.472656 C 407.46875 203.472656 447.675781 203.492188 487.882812 203.472656 C 500.832031 203.472656 513.765625 202.609375 526.703125 202.890625 C 536.167969 203.097656 549.851562 202.570312 552.324219 213.40625 C 556.113281 229.898438 556.074219 247.21875 554.855469 263.828125 C 553.558594 281.335938 555.734375 296.855469 555.582031 314.398438 Z M 555.582031 314.398438 " fill-opacity="1" fill-rule="nonzero"/><path fill="#ffffff" d="M 288.054688 237.0625 C 298.507812 228.863281 286.222656 215.828125 276.007812 220.039062 C 261.738281 225.929688 277.648438 245.222656 288.054688 237.0625 Z M 288.054688 237.0625 " fill-opacity="1" fill-rule="nonzero"/><path fill="#ffffff" d="M 336.789062 237.0625 C 347.242188 228.863281 334.957031 215.828125 324.746094 220.039062 C 310.476562 225.929688 326.382812 245.222656 336.789062 237.0625 Z M 336.789062 237.0625 " fill-opacity="1" fill-rule="nonzero"/><path fill="#ffffff" d="M 385.523438 237.0625 C 395.976562 228.863281 383.691406 215.828125 373.480469 220.042969 C 359.210938 225.929688 375.117188 245.226562 385.523438 237.0625 Z M 385.523438 237.0625 " fill-opacity="1" fill-rule="nonzero"/><path fill="#ffffff" d="M 434.257812 237.0625 C 444.710938 228.863281 432.425781 215.832031 422.214844 220.042969 C 407.945312 225.929688 423.851562 245.226562 434.257812 237.0625 Z M 434.257812 237.0625 " fill-opacity="1" fill-rule="nonzero"/><path fill="#ffffff" d="M 482.996094 237.066406 C 493.449219 228.867188 481.160156 215.832031 470.949219 220.042969 C 456.679688 225.933594 472.585938 245.226562 482.996094 237.066406 Z M 482.996094 237.066406 " fill-opacity="1" fill-rule="nonzero"/><path fill="#ffffff" d="M 531.730469 237.066406 C 542.183594 228.867188 529.898438 215.832031 519.683594 220.046875 C 505.414062 225.933594 521.324219 245.226562 531.730469 237.066406 Z M 531.730469 237.066406 " fill-opacity="1" fill-rule="nonzero"/><path fill="#ff914d" d="M 275.402344 227.976562 C 275.722656 231.558594 278.710938 233.054688 283.417969 232.605469 C 287.671875 232.203125 286.566406 227.542969 286.90625 224.875 C 287.355469 221.359375 286.800781 217.671875 287.210938 214.15625 C 287.558594 211.175781 287.441406 208.167969 286.835938 205.234375 C 286.183594 202.097656 286.808594 197 281.613281 195.804688 C 276.925781 194.71875 276.640625 198.710938 276.3125 201.121094 C 275.097656 210.03125 274.605469 219.042969 275.402344 227.976562 Z M 275.402344 227.976562 " fill-opacity="1" fill-rule="nonzero"/><path fill="#ff914d" d="M 324.113281 227.976562 C 324.433594 231.558594 327.421875 233.054688 332.128906 232.605469 C 336.382812 232.203125 335.277344 227.542969 335.617188 224.875 C 336.066406 221.359375 335.511719 217.671875 335.921875 214.15625 C 336.269531 211.175781 336.152344 208.167969 335.542969 205.234375 C 334.894531 202.097656 335.515625 197 330.324219 195.804688 C 325.632812 194.71875 325.351562 198.710938 325.023438 201.121094 C 323.808594 210.03125 323.316406 219.042969 324.113281 227.976562 Z M 324.113281 227.976562 " fill-opacity="1" fill-rule="nonzero"/><path fill="#ff914d" d="M 372.828125 227.976562 C 373.148438 231.558594 376.132812 233.054688 380.839844 232.605469 C 385.09375 232.203125 383.988281 227.542969 384.328125 224.875 C 384.773438 221.359375 384.222656 217.671875 384.632812 214.15625 C 384.980469 211.175781 384.863281 208.167969 384.253906 205.234375 C 383.605469 202.097656 384.230469 197 379.035156 195.804688 C 374.34375 194.71875 374.0625 198.710938 373.734375 201.121094 C 372.519531 210.03125 372.027344 219.042969 372.828125 227.976562 Z M 372.828125 227.976562 " fill-opacity="1" fill-rule="nonzero"/><path fill="#ff914d" d="M 421.539062 227.976562 C 421.859375 231.558594 424.84375 233.054688 429.550781 232.605469 C 433.804688 232.203125 432.699219 227.542969 433.039062 224.875 C 433.488281 221.359375 432.933594 217.671875 433.34375 214.15625 C 433.691406 211.175781 433.574219 208.167969 432.964844 205.234375 C 432.316406 202.097656 432.9375 197 427.746094 195.804688 C 423.054688 194.71875 422.773438 198.710938 422.445312 201.121094 C 421.230469 210.03125 420.742188 219.042969 421.539062 227.976562 Z M 421.539062 227.976562 " fill-opacity="1" fill-rule="nonzero"/><path fill="#ff914d" d="M 470.25 227.976562 C 470.566406 231.558594 473.554688 233.054688 478.261719 232.605469 C 482.519531 232.203125 481.410156 227.542969 481.75 224.875 C 482.199219 221.359375 481.644531 217.671875 482.054688 214.15625 C 482.402344 211.175781 482.285156 208.167969 481.675781 205.234375 C 481.027344 202.097656 481.648438 197 476.457031 195.804688 C 471.765625 194.71875 471.484375 198.710938 471.15625 201.121094 C 469.941406 210.03125 469.453125 219.042969 470.25 227.976562 Z M 470.25 227.976562 " fill-opacity="1" fill-rule="nonzero"/><path fill="#ff914d" d="M 518.960938 227.976562 C 519.277344 231.558594 522.265625 233.054688 526.972656 232.605469 C 531.230469 232.203125 530.121094 227.542969 530.460938 224.875 C 530.910156 221.359375 530.355469 217.671875 530.765625 214.15625 C 531.113281 211.175781 530.996094 208.167969 530.386719 205.234375 C 529.738281 202.097656 530.359375 197 525.167969 195.804688 C 520.476562 194.71875 520.195312 198.710938 519.867188 201.121094 C 518.652344 210.03125 518.164062 219.042969 518.960938 227.976562 Z M 518.960938 227.976562 " fill-opacity="1" fill-rule="nonzero"/><path fill="#ffffff" d="M 337.003906 280.695312 C 336.785156 282.28125 336.703125 283.929688 336.753906 285.523438 C 336.871094 288.96875 336.917969 292.417969 336.835938 295.863281 C 336.800781 297.59375 336.921875 299.324219 336.835938 301.054688 C 336.738281 302.796875 337.054688 304.589844 336.90625 306.320312 C 336.871094 306.777344 336.691406 307.101562 336.441406 307.324219 C 335.828125 307.882812 334.820312 307.769531 334.03125 307.742188 C 332.765625 307.683594 331.511719 307.632812 330.246094 307.621094 C 329.457031 307.609375 328.675781 307.601562 327.882812 307.597656 C 325.132812 307.585938 322.390625 307.59375 319.640625 307.609375 C 319.289062 307.609375 318.945312 307.621094 318.609375 307.628906 C 316.9375 307.675781 315.46875 307.800781 313.6875 307.769531 C 312.773438 307.75 311.675781 308.007812 310.878906 307.671875 C 309.535156 307.101562 309.636719 304.699219 309.640625 303.625 C 309.679688 301.003906 309.503906 298.515625 309.503906 295.878906 L 309.503906 283.519531 C 309.503906 282.203125 309.410156 280.871094 309.441406 279.546875 C 309.464844 278.578125 309.410156 277.175781 310.617188 276.917969 C 312.460938 276.535156 314.390625 276.535156 316.25 276.667969 C 318.203125 276.796875 319.933594 276.574219 321.894531 276.589844 C 324.0625 276.605469 326.445312 276.699219 328.621094 276.699219 C 330.5 276.699219 331.796875 276.542969 333.679688 276.597656 C 334.695312 276.628906 336.402344 277.140625 336.839844 278.074219 C 336.996094 278.417969 337.132812 279.773438 337.003906 280.695312 Z M 337.003906 280.695312 " fill-opacity="1" fill-rule="nonzero"/><path fill="#ffffff" d="M 390.191406 280.695312 C 389.96875 282.285156 389.890625 283.929688 389.941406 285.523438 C 390.054688 288.96875 390.105469 292.417969 390.023438 295.863281 C 389.988281 297.59375 390.109375 299.324219 390.023438 301.054688 C 389.925781 302.796875 390.242188 304.59375 390.089844 306.320312 C 390.054688 306.777344 389.878906 307.105469 389.628906 307.324219 C 389.011719 307.882812 388.003906 307.769531 387.214844 307.742188 C 385.949219 307.683594 384.695312 307.632812 383.429688 307.621094 C 382.640625 307.609375 381.859375 307.605469 381.066406 307.597656 C 378.320312 307.585938 375.574219 307.597656 372.824219 307.609375 C 372.472656 307.609375 372.128906 307.621094 371.792969 307.628906 C 370.121094 307.675781 368.652344 307.800781 366.871094 307.769531 C 365.957031 307.75 364.859375 308.007812 364.0625 307.671875 C 362.71875 307.105469 362.816406 304.699219 362.824219 303.628906 C 362.863281 301.003906 362.6875 298.515625 362.6875 295.878906 L 362.6875 283.519531 C 362.6875 282.203125 362.59375 280.871094 362.621094 279.550781 C 362.648438 278.578125 362.59375 277.175781 363.800781 276.917969 C 365.640625 276.539062 367.574219 276.539062 369.429688 276.667969 C 371.382812 276.796875 373.113281 276.574219 375.074219 276.589844 C 377.242188 276.605469 379.625 276.695312 381.800781 276.695312 C 383.679688 276.695312 384.976562 276.542969 386.863281 276.597656 C 387.878906 276.628906 389.585938 277.140625 390.023438 278.074219 C 390.1875 278.417969 390.320312 279.773438 390.191406 280.695312 Z M 390.191406 280.695312 " fill-opacity="1" fill-rule="nonzero"/><path fill="#ffffff" d="M 443.378906 280.699219 C 443.160156 282.285156 443.078125 283.929688 443.128906 285.523438 C 443.242188 288.96875 443.292969 292.417969 443.210938 295.863281 C 443.175781 297.597656 443.296875 299.324219 443.210938 301.054688 C 443.113281 302.796875 443.429688 304.59375 443.28125 306.320312 C 443.246094 306.78125 443.066406 307.105469 442.816406 307.324219 C 442.203125 307.882812 441.195312 307.769531 440.402344 307.742188 C 439.140625 307.683594 437.886719 307.636719 436.621094 307.621094 C 435.832031 307.613281 435.046875 307.605469 434.257812 307.601562 C 431.507812 307.589844 428.765625 307.597656 426.015625 307.613281 C 425.664062 307.613281 425.320312 307.621094 424.984375 307.628906 C 423.3125 307.679688 421.84375 307.804688 420.0625 307.769531 C 419.148438 307.753906 418.050781 308.011719 417.253906 307.675781 C 415.910156 307.105469 416.007812 304.703125 416.015625 303.628906 C 416.054688 301.007812 415.875 298.519531 415.875 295.882812 L 415.875 283.523438 C 415.875 282.207031 415.785156 280.875 415.8125 279.550781 C 415.835938 278.582031 415.785156 277.179688 416.992188 276.921875 C 418.835938 276.539062 420.765625 276.539062 422.621094 276.667969 C 424.574219 276.800781 426.304688 276.578125 428.265625 276.59375 C 430.433594 276.609375 432.820312 276.699219 434.992188 276.699219 C 436.871094 276.699219 438.171875 276.546875 440.054688 276.601562 C 441.070312 276.636719 442.777344 277.144531 443.214844 278.078125 C 443.371094 278.421875 443.503906 279.773438 443.378906 280.699219 Z M 443.378906 280.699219 " fill-opacity="1" fill-rule="nonzero"/><path fill="#ffffff" d="M 496.5625 280.699219 C 496.34375 282.285156 496.265625 283.929688 496.316406 285.527344 C 496.429688 288.96875 496.476562 292.421875 496.398438 295.867188 C 496.363281 297.597656 496.484375 299.328125 496.398438 301.054688 C 496.300781 302.800781 496.617188 304.59375 496.46875 306.320312 C 496.429688 306.78125 496.253906 307.105469 496.003906 307.328125 C 495.386719 307.882812 494.378906 307.769531 493.589844 307.742188 C 492.328125 307.683594 491.070312 307.636719 489.808594 307.621094 C 489.019531 307.613281 488.238281 307.605469 487.445312 307.601562 C 484.695312 307.589844 481.953125 307.597656 479.203125 307.613281 C 478.851562 307.613281 478.503906 307.621094 478.171875 307.632812 C 476.5 307.679688 475.03125 307.804688 473.25 307.769531 C 472.335938 307.753906 471.238281 308.011719 470.441406 307.671875 C 469.097656 307.105469 469.195312 304.703125 469.203125 303.628906 C 469.242188 301.007812 469.066406 298.519531 469.066406 295.882812 L 469.066406 283.523438 C 469.066406 282.203125 468.972656 280.875 469 279.550781 C 469.023438 278.578125 468.96875 277.179688 470.175781 276.921875 C 472.019531 276.539062 473.953125 276.539062 475.808594 276.667969 C 477.761719 276.796875 479.492188 276.578125 481.453125 276.59375 C 483.621094 276.609375 486.003906 276.699219 488.179688 276.699219 C 490.058594 276.699219 491.355469 276.542969 493.238281 276.601562 C 494.253906 276.632812 495.960938 277.140625 496.398438 278.074219 C 496.558594 278.421875 496.691406 279.773438 496.5625 280.699219 Z M 496.5625 280.699219 " fill-opacity="1" fill-rule="nonzero"/><path fill="#ffffff" d="M 337.003906 330.640625 C 336.785156 332.222656 336.703125 333.871094 336.753906 335.464844 C 336.871094 338.910156 336.917969 342.359375 336.835938 345.804688 C 336.800781 347.535156 336.921875 349.265625 336.835938 350.996094 C 336.738281 352.738281 337.054688 354.535156 336.90625 356.261719 C 336.871094 356.71875 336.691406 357.046875 336.441406 357.265625 C 335.828125 357.824219 334.820312 357.710938 334.03125 357.683594 C 332.765625 357.625 331.511719 357.578125 330.246094 357.5625 C 329.457031 357.554688 328.675781 357.546875 327.882812 357.542969 C 325.132812 357.53125 322.390625 357.539062 319.640625 357.554688 C 319.289062 357.554688 318.945312 357.5625 318.609375 357.570312 C 316.9375 357.621094 315.46875 357.746094 313.6875 357.710938 C 312.773438 357.695312 311.675781 357.949219 310.878906 357.613281 C 309.535156 357.046875 309.636719 354.640625 309.640625 353.570312 C 309.679688 350.945312 309.503906 348.457031 309.503906 345.824219 L 309.503906 333.464844 C 309.503906 332.144531 309.410156 330.8125 309.441406 329.492188 C 309.464844 328.519531 309.410156 327.117188 310.617188 326.863281 C 312.460938 326.480469 314.390625 326.480469 316.25 326.609375 C 318.203125 326.738281 319.933594 326.515625 321.894531 326.53125 C 324.0625 326.546875 326.445312 326.640625 328.621094 326.640625 C 330.5 326.640625 331.796875 326.484375 333.679688 326.539062 C 334.695312 326.574219 336.402344 327.082031 336.839844 328.015625 C 336.996094 328.363281 337.132812 329.714844 337.003906 330.640625 Z M 337.003906 330.640625 " fill-opacity="1" fill-rule="nonzero"/><path fill="#ffffff" d="M 390.191406 330.640625 C 389.96875 332.226562 389.890625 333.875 389.941406 335.46875 C 390.054688 338.910156 390.105469 342.363281 390.023438 345.808594 C 389.988281 347.539062 390.109375 349.265625 390.023438 350.996094 C 389.925781 352.742188 390.242188 354.535156 390.089844 356.261719 C 390.054688 356.722656 389.878906 357.046875 389.628906 357.269531 C 389.011719 357.824219 388.003906 357.710938 387.214844 357.683594 C 385.949219 357.625 384.695312 357.578125 383.429688 357.5625 C 382.640625 357.554688 381.859375 357.546875 381.066406 357.542969 C 378.320312 357.53125 375.574219 357.539062 372.824219 357.554688 C 372.472656 357.554688 372.128906 357.5625 371.792969 357.574219 C 370.121094 357.621094 368.652344 357.746094 366.871094 357.714844 C 365.957031 357.695312 364.859375 357.953125 364.0625 357.617188 C 362.71875 357.050781 362.816406 354.644531 362.824219 353.570312 C 362.863281 350.949219 362.6875 348.460938 362.6875 345.824219 L 362.6875 333.464844 C 362.6875 332.148438 362.59375 330.816406 362.621094 329.492188 C 362.648438 328.519531 362.59375 327.121094 363.800781 326.863281 C 365.640625 326.480469 367.574219 326.480469 369.429688 326.613281 C 371.382812 326.742188 373.113281 326.519531 375.074219 326.535156 C 377.242188 326.550781 379.625 326.644531 381.800781 326.644531 C 383.679688 326.644531 384.976562 326.488281 386.863281 326.542969 C 387.878906 326.578125 389.585938 327.085938 390.023438 328.019531 C 390.1875 328.363281 390.320312 329.714844 390.191406 330.640625 Z M 390.191406 330.640625 " fill-opacity="1" fill-rule="nonzero"/><path fill="#ffffff" d="M 443.378906 330.640625 C 443.160156 332.226562 443.078125 333.875 443.128906 335.46875 C 443.242188 338.914062 443.292969 342.363281 443.210938 345.808594 C 443.175781 347.539062 443.296875 349.269531 443.210938 350.996094 C 443.113281 352.742188 443.429688 354.535156 443.28125 356.261719 C 443.246094 356.722656 443.066406 357.046875 442.816406 357.269531 C 442.203125 357.824219 441.195312 357.714844 440.402344 357.683594 C 439.140625 357.628906 437.886719 357.578125 436.621094 357.5625 C 435.832031 357.554688 435.046875 357.546875 434.257812 357.542969 C 431.507812 357.53125 428.765625 357.539062 426.015625 357.554688 C 425.664062 357.554688 425.320312 357.5625 424.984375 357.574219 C 423.3125 357.621094 421.84375 357.746094 420.0625 357.714844 C 419.148438 357.695312 418.050781 357.953125 417.253906 357.617188 C 415.910156 357.046875 416.007812 354.644531 416.015625 353.570312 C 416.054688 350.949219 415.875 348.460938 415.875 345.824219 L 415.875 333.464844 C 415.875 332.144531 415.785156 330.816406 415.8125 329.492188 C 415.835938 328.519531 415.785156 327.121094 416.992188 326.863281 C 418.835938 326.480469 420.765625 326.480469 422.621094 326.613281 C 424.574219 326.742188 426.304688 326.519531 428.265625 326.535156 C 430.433594 326.550781 432.820312 326.640625 434.992188 326.640625 C 436.871094 326.640625 438.171875 326.488281 440.054688 326.542969 C 441.070312 326.574219 442.777344 327.085938 443.214844 328.019531 C 443.371094 328.367188 443.503906 329.71875 443.378906 330.640625 Z M 443.378906 330.640625 " fill-opacity="1" fill-rule="nonzero"/><path fill="#ffffff" d="M 496.5625 330.640625 C 496.34375 332.226562 496.265625 333.875 496.316406 335.46875 C 496.429688 338.914062 496.476562 342.363281 496.398438 345.808594 C 496.363281 347.539062 496.484375 349.269531 496.398438 350.996094 C 496.300781 352.742188 496.617188 354.539062 496.46875 356.265625 C 496.429688 356.722656 496.253906 357.050781 496.003906 357.269531 C 495.386719 357.828125 494.378906 357.714844 493.589844 357.6875 C 492.328125 357.628906 491.070312 357.578125 489.808594 357.5625 C 489.019531 357.554688 488.238281 357.550781 487.445312 357.542969 C 484.695312 357.53125 481.953125 357.542969 479.203125 357.554688 C 478.851562 357.554688 478.503906 357.5625 478.171875 357.574219 C 476.5 357.621094 475.03125 357.746094 473.25 357.714844 C 472.335938 357.695312 471.238281 357.953125 470.441406 357.617188 C 469.097656 357.050781 469.195312 354.644531 469.203125 353.574219 C 469.242188 350.949219 469.066406 348.460938 469.066406 345.824219 L 469.066406 333.464844 C 469.066406 332.148438 468.972656 330.816406 469 329.496094 C 469.023438 328.523438 468.96875 327.121094 470.175781 326.863281 C 472.019531 326.480469 473.953125 326.480469 475.808594 326.613281 C 477.761719 326.742188 479.492188 326.519531 481.453125 326.535156 C 483.621094 326.550781 486.003906 326.644531 488.179688 326.644531 C 490.058594 326.644531 491.355469 326.488281 493.238281 326.546875 C 494.253906 326.578125 495.960938 327.085938 496.398438 328.019531 C 496.558594 328.367188 496.691406 329.71875 496.5625 330.640625 Z M 496.5625 330.640625 " fill-opacity="1" fill-rule="nonzero"/><path fill="#ffffff" d="M 337.003906 380.582031 C 336.785156 382.167969 336.703125 383.816406 336.753906 385.410156 C 336.871094 388.855469 336.917969 392.304688 336.835938 395.75 C 336.800781 397.480469 336.921875 399.210938 336.835938 400.9375 C 336.738281 402.683594 337.054688 404.476562 336.90625 406.203125 C 336.871094 406.664062 336.691406 406.988281 336.441406 407.210938 C 335.828125 407.765625 334.820312 407.65625 334.03125 407.625 C 332.765625 407.570312 331.511719 407.519531 330.246094 407.503906 C 329.457031 407.496094 328.675781 407.488281 327.882812 407.484375 C 325.132812 407.472656 322.390625 407.480469 319.640625 407.496094 C 319.289062 407.496094 318.945312 407.503906 318.609375 407.511719 C 316.9375 407.5625 315.46875 407.6875 313.6875 407.65625 C 312.773438 407.636719 311.675781 407.894531 310.878906 407.554688 C 309.535156 406.988281 309.636719 404.585938 309.640625 403.511719 C 309.679688 400.890625 309.503906 398.402344 309.503906 395.765625 L 309.503906 383.40625 C 309.503906 382.089844 309.410156 380.757812 309.441406 379.433594 C 309.464844 378.460938 309.410156 377.0625 310.617188 376.804688 C 312.460938 376.421875 314.390625 376.421875 316.25 376.550781 C 318.203125 376.683594 319.933594 376.457031 321.894531 376.476562 C 324.0625 376.492188 326.445312 376.582031 328.621094 376.582031 C 330.5 376.582031 331.796875 376.429688 333.679688 376.484375 C 334.695312 376.515625 336.402344 377.023438 336.839844 377.957031 C 336.996094 378.304688 337.132812 379.660156 337.003906 380.582031 Z M 337.003906 380.582031 " fill-opacity="1" fill-rule="nonzero"/><path fill="#ffffff" d="M 390.191406 380.582031 C 389.96875 382.167969 389.890625 383.816406 389.941406 385.410156 C 390.054688 388.855469 390.105469 392.304688 390.023438 395.75 C 389.988281 397.480469 390.109375 399.210938 390.023438 400.9375 C 389.925781 402.683594 390.242188 404.480469 390.089844 406.207031 C 390.054688 406.664062 389.878906 406.988281 389.628906 407.210938 C 389.011719 407.769531 388.003906 407.65625 387.214844 407.628906 C 385.949219 407.570312 384.695312 407.519531 383.429688 407.503906 C 382.640625 407.496094 381.859375 407.492188 381.066406 407.484375 C 378.320312 407.472656 375.574219 407.484375 372.824219 407.496094 C 372.472656 407.496094 372.128906 407.503906 371.792969 407.515625 C 370.121094 407.5625 368.652344 407.6875 366.871094 407.65625 C 365.957031 407.636719 364.859375 407.894531 364.0625 407.558594 C 362.71875 406.992188 362.816406 404.585938 362.824219 403.515625 C 362.863281 400.890625 362.6875 398.402344 362.6875 395.769531 L 362.6875 383.410156 C 362.6875 382.089844 362.59375 380.757812 362.621094 379.4375 C 362.648438 378.464844 362.59375 377.0625 363.800781 376.808594 C 365.640625 376.425781 367.574219 376.425781 369.429688 376.554688 C 371.382812 376.683594 373.113281 376.460938 375.074219 376.476562 C 377.242188 376.492188 379.625 376.585938 381.800781 376.585938 C 383.679688 376.585938 384.976562 376.429688 386.863281 376.488281 C 387.878906 376.519531 389.585938 377.027344 390.023438 377.960938 C 390.1875 378.304688 390.320312 379.660156 390.191406 380.582031 Z M 390.191406 380.582031 " fill-opacity="1" fill-rule="nonzero"/><path fill="#ffffff" d="M 443.378906 380.585938 C 443.160156 382.167969 443.078125 383.816406 443.128906 385.410156 C 443.242188 388.855469 443.292969 392.304688 443.210938 395.75 C 443.175781 397.480469 443.296875 399.210938 443.210938 400.941406 C 443.113281 402.683594 443.429688 404.480469 443.28125 406.207031 C 443.246094 406.664062 443.066406 406.992188 442.816406 407.210938 C 442.203125 407.769531 441.195312 407.65625 440.402344 407.628906 C 439.140625 407.570312 437.886719 407.523438 436.621094 407.507812 C 435.832031 407.5 435.046875 407.492188 434.257812 407.488281 C 431.507812 407.472656 428.765625 407.484375 426.015625 407.5 C 425.664062 407.5 425.320312 407.507812 424.984375 407.515625 C 423.3125 407.566406 421.84375 407.691406 420.0625 407.65625 C 419.148438 407.636719 418.050781 407.894531 417.253906 407.558594 C 415.910156 406.992188 416.007812 404.585938 416.015625 403.515625 C 416.054688 400.890625 415.875 398.402344 415.875 395.765625 L 415.875 383.40625 C 415.875 382.089844 415.785156 380.757812 415.8125 379.433594 C 415.835938 378.464844 415.785156 377.0625 416.992188 376.808594 C 418.835938 376.425781 420.765625 376.425781 422.621094 376.554688 C 424.574219 376.683594 426.304688 376.464844 428.265625 376.480469 C 430.433594 376.492188 432.820312 376.585938 434.992188 376.585938 C 436.871094 376.585938 438.171875 376.429688 440.054688 376.488281 C 441.070312 376.519531 442.777344 377.03125 443.214844 377.960938 C 443.371094 378.308594 443.503906 379.660156 443.378906 380.585938 Z M 443.378906 380.585938 " fill-opacity="1" fill-rule="nonzero"/><path fill="#ffffff" d="M 496.5625 380.585938 C 496.34375 382.171875 496.265625 383.816406 496.316406 385.414062 C 496.429688 388.855469 496.476562 392.308594 496.398438 395.75 C 496.363281 397.484375 496.484375 399.210938 496.398438 400.941406 C 496.300781 402.683594 496.617188 404.480469 496.46875 406.207031 C 496.429688 406.667969 496.253906 406.992188 496.003906 407.214844 C 495.386719 407.769531 494.378906 407.65625 493.589844 407.628906 C 492.328125 407.570312 491.070312 407.523438 489.808594 407.507812 C 489.019531 407.5 488.238281 407.492188 487.445312 407.488281 C 484.695312 407.472656 481.953125 407.484375 479.203125 407.5 C 478.851562 407.5 478.503906 407.507812 478.171875 407.515625 C 476.5 407.566406 475.03125 407.691406 473.25 407.65625 C 472.335938 407.640625 471.238281 407.898438 470.441406 407.558594 C 469.097656 406.992188 469.195312 404.589844 469.203125 403.515625 C 469.242188 400.894531 469.066406 398.40625 469.066406 395.769531 L 469.066406 383.410156 C 469.066406 382.089844 468.972656 380.757812 469 379.4375 C 469.023438 378.464844 468.96875 377.0625 470.175781 376.808594 C 472.019531 376.425781 473.953125 376.425781 475.808594 376.554688 C 477.761719 376.683594 479.492188 376.460938 481.453125 376.480469 C 483.621094 376.492188 486.003906 376.585938 488.179688 376.585938 C 490.058594 376.585938 491.355469 376.429688 493.238281 376.488281 C 494.253906 376.519531 495.960938 377.027344 496.398438 377.960938 C 496.558594 378.308594 496.691406 379.664062 496.5625 380.585938 Z M 496.5625 380.585938 " fill-opacity="1" fill-rule="nonzero"/><path fill="#f5c07f" d="M 555.378906 401.992188 C 541.039062 417.304688 527.261719 433.125 514.308594 449.660156 C 513.632812 449.585938 512.957031 449.507812 512.285156 449.433594 C 512.433594 448.476562 512.621094 447.484375 512.773438 446.511719 C 513.859375 439.085938 513.785156 430.089844 513.035156 422.628906 C 512.660156 418.84375 512.585938 414.71875 512.191406 410.914062 C 511.6875 405.875 511.480469 404.953125 516.765625 404.355469 C 524.449219 403.492188 532.453125 404.785156 540.195312 404.355469 C 543.421875 404.1875 550.597656 401.222656 555.359375 401.582031 C 555.359375 401.710938 555.378906 401.863281 555.378906 401.992188 Z M 555.378906 401.992188 " fill-opacity="1" fill-rule="nonzero"/><g fill="#00bf63" fill-opacity="1"><g transform="translate(195.845765, 509.178506)"><g><path d="M 26.421875 -37.984375 C 25.515625 -39.234375 24.46875 -40.210938 23.28125 -40.921875 C 22.101562 -41.640625 20.71875 -42 19.125 -42 C 17.488281 -42 16.085938 -41.457031 14.921875 -40.375 C 13.765625 -39.300781 13.1875 -38.007812 13.1875 -36.5 C 13.1875 -35.125 13.753906 -33.953125 14.890625 -32.984375 C 16.035156 -32.015625 17.726562 -31.097656 19.96875 -30.234375 C 23.84375 -28.640625 26.585938 -27.109375 28.203125 -25.640625 C 29.816406 -24.179688 30.9375 -22.609375 31.5625 -20.921875 C 32.1875 -19.242188 32.5 -17.394531 32.5 -15.375 C 32.5 -10.425781 31.035156 -6.410156 28.109375 -3.328125 C 25.179688 -0.242188 21.300781 1.296875 16.46875 1.296875 C 13.113281 1.296875 10.195312 0.425781 7.71875 -1.3125 C 5.238281 -3.0625 3.160156 -5.359375 1.484375 -8.203125 L 7.625 -14.21875 C 8.351562 -12.144531 9.535156 -10.441406 11.171875 -9.109375 C 12.804688 -7.773438 14.550781 -7.109375 16.40625 -7.109375 C 18.21875 -7.109375 19.710938 -7.765625 20.890625 -9.078125 C 22.078125 -10.390625 22.671875 -12.082031 22.671875 -14.15625 C 22.671875 -15.957031 22.109375 -17.394531 20.984375 -18.46875 C 19.867188 -19.550781 18.210938 -20.523438 16.015625 -21.390625 C 11.148438 -23.234375 7.820312 -25.1875 6.03125 -27.25 C 4.25 -29.320312 3.359375 -32.039062 3.359375 -35.40625 C 3.359375 -37.988281 3.960938 -40.398438 5.171875 -42.640625 C 6.378906 -44.878906 8.078125 -46.664062 10.265625 -48 C 12.460938 -49.332031 14.898438 -50 17.578125 -50 C 19.941406 -50 22.425781 -49.460938 25.03125 -48.390625 C 27.632812 -47.316406 29.585938 -46.046875 30.890625 -44.578125 Z M 26.421875 -37.984375 "/></g></g></g><g fill="#00bf63" fill-opacity="1"><g transform="translate(229.822061, 509.178506)"><g><path d="M 24.296875 -31.71875 L 33.203125 -31.71875 L 33.203125 0 L 24.296875 0 L 24.296875 -2.90625 L 24.15625 -2.90625 C 23.21875 -1.65625 21.960938 -0.6875 20.390625 0 C 18.816406 0.6875 17.210938 1.03125 15.578125 1.03125 C 11.390625 1.03125 7.90625 -0.613281 5.125 -3.90625 C 2.351562 -7.195312 0.96875 -11.234375 0.96875 -16.015625 C 0.96875 -18.992188 1.570312 -21.753906 2.78125 -24.296875 C 3.988281 -26.835938 5.695312 -28.878906 7.90625 -30.421875 C 10.125 -31.972656 12.632812 -32.75 15.4375 -32.75 C 17.070312 -32.75 18.675781 -32.40625 20.25 -31.71875 C 21.820312 -31.03125 23.171875 -30.039062 24.296875 -28.75 Z M 17.578125 -24.75 C 15.546875 -24.75 13.796875 -23.875 12.328125 -22.125 C 10.867188 -20.382812 10.140625 -18.304688 10.140625 -15.890625 C 10.140625 -13.484375 10.867188 -11.394531 12.328125 -9.625 C 13.796875 -7.863281 15.566406 -6.984375 17.640625 -6.984375 C 19.742188 -6.984375 21.53125 -7.851562 23 -9.59375 C 24.46875 -11.34375 25.203125 -13.441406 25.203125 -15.890625 C 25.203125 -18.347656 24.457031 -20.4375 22.96875 -22.15625 C 21.476562 -23.882812 19.679688 -24.75 17.578125 -24.75 Z M 17.578125 -24.75 "/></g></g></g><g fill="#00bf63" fill-opacity="1"><g transform="translate(266.317518, 509.178506)"><g><path d="M 19.828125 -46.453125 C 19.140625 -46.796875 18.515625 -47.0625 17.953125 -47.25 C 17.398438 -47.445312 16.800781 -47.546875 16.15625 -47.546875 C 14.726562 -47.503906 13.773438 -46.941406 13.296875 -45.859375 C 12.828125 -44.785156 12.59375 -43.539062 12.59375 -42.125 L 12.59375 -31.71875 L 19.828125 -31.71875 L 19.828125 -24.09375 L 12.59375 -24.09375 L 12.59375 0 L 3.546875 0 L 3.546875 -24.09375 L 0.515625 -24.09375 L 0.515625 -31.71875 L 3.546875 -31.71875 L 3.546875 -41.15625 C 3.546875 -45.675781 4.59375 -49.207031 6.6875 -51.75 C 8.78125 -54.289062 11.71875 -55.5625 15.5 -55.5625 C 17.144531 -55.5625 18.585938 -55.21875 19.828125 -54.53125 Z M 19.828125 -46.453125 "/></g></g></g><g fill="#00bf63" fill-opacity="1"><g transform="translate(285.889412, 509.178506)"><g><path d="M 24.296875 -31.71875 L 33.203125 -31.71875 L 33.203125 0 L 24.296875 0 L 24.296875 -2.90625 L 24.15625 -2.90625 C 23.21875 -1.65625 21.960938 -0.6875 20.390625 0 C 18.816406 0.6875 17.210938 1.03125 15.578125 1.03125 C 11.390625 1.03125 7.90625 -0.613281 5.125 -3.90625 C 2.351562 -7.195312 0.96875 -11.234375 0.96875 -16.015625 C 0.96875 -18.992188 1.570312 -21.753906 2.78125 -24.296875 C 3.988281 -26.835938 5.695312 -28.878906 7.90625 -30.421875 C 10.125 -31.972656 12.632812 -32.75 15.4375 -32.75 C 17.070312 -32.75 18.675781 -32.40625 20.25 -31.71875 C 21.820312 -31.03125 23.171875 -30.039062 24.296875 -28.75 Z M 17.578125 -24.75 C 15.546875 -24.75 13.796875 -23.875 12.328125 -22.125 C 10.867188 -20.382812 10.140625 -18.304688 10.140625 -15.890625 C 10.140625 -13.484375 10.867188 -11.394531 12.328125 -9.625 C 13.796875 -7.863281 15.566406 -6.984375 17.640625 -6.984375 C 19.742188 -6.984375 21.53125 -7.851562 23 -9.59375 C 24.46875 -11.34375 25.203125 -13.441406 25.203125 -15.890625 C 25.203125 -18.347656 24.457031 -20.4375 22.96875 -22.15625 C 21.476562 -23.882812 19.679688 -24.75 17.578125 -24.75 Z M 17.578125 -24.75 "/></g></g></g><g fill="#00bf63" fill-opacity="1"><g transform="translate(322.384869, 509.178506)"><g><path d="M 12.28125 -54.78125 L 12.28125 0 L 3.234375 0 L 3.234375 -54.78125 Z M 12.28125 -54.78125 "/></g></g></g><g fill="#ff914d" fill-opacity="1"><g transform="translate(337.828579, 509.178506)"><g><path d="M 36.046875 -35.796875 C 34.710938 -37.429688 33.085938 -38.703125 31.171875 -39.609375 C 29.253906 -40.515625 27.304688 -40.96875 25.328125 -40.96875 C 21.191406 -40.96875 17.765625 -39.328125 15.046875 -36.046875 C 12.335938 -32.773438 10.984375 -28.8125 10.984375 -24.15625 C 10.984375 -19.59375 12.359375 -15.71875 15.109375 -12.53125 C 17.867188 -9.34375 21.253906 -7.75 25.265625 -7.75 C 27.328125 -7.75 29.304688 -8.234375 31.203125 -9.203125 C 33.097656 -10.171875 34.710938 -11.410156 36.046875 -12.921875 L 36.046875 -1.609375 C 34.242188 -0.753906 32.445312 -0.0546875 30.65625 0.484375 C 28.863281 1.023438 26.976562 1.296875 25 1.296875 C 20.695312 1.296875 16.742188 0.195312 13.140625 -2 C 9.546875 -4.195312 6.648438 -7.273438 4.453125 -11.234375 C 2.253906 -15.203125 1.15625 -19.445312 1.15625 -23.96875 C 1.15625 -28.707031 2.210938 -33.085938 4.328125 -37.109375 C 6.441406 -41.140625 9.335938 -44.296875 13.015625 -46.578125 C 16.703125 -48.859375 20.765625 -50 25.203125 -50 C 27.140625 -50 29.019531 -49.75 30.84375 -49.25 C 32.675781 -48.757812 34.410156 -48.066406 36.046875 -47.171875 Z M 36.046875 -35.796875 "/></g></g></g><g fill="#ff914d" fill-opacity="1"><g transform="translate(376.649399, 509.178506)"><g><path d="M 24.296875 -31.71875 L 33.203125 -31.71875 L 33.203125 0 L 24.296875 0 L 24.296875 -2.90625 L 24.15625 -2.90625 C 23.21875 -1.65625 21.960938 -0.6875 20.390625 0 C 18.816406 0.6875 17.210938 1.03125 15.578125 1.03125 C 11.390625 1.03125 7.90625 -0.613281 5.125 -3.90625 C 2.351562 -7.195312 0.96875 -11.234375 0.96875 -16.015625 C 0.96875 -18.992188 1.570312 -21.753906 2.78125 -24.296875 C 3.988281 -26.835938 5.695312 -28.878906 7.90625 -30.421875 C 10.125 -31.972656 12.632812 -32.75 15.4375 -32.75 C 17.070312 -32.75 18.675781 -32.40625 20.25 -31.71875 C 21.820312 -31.03125 23.171875 -30.039062 24.296875 -28.75 Z M 17.578125 -24.75 C 15.546875 -24.75 13.796875 -23.875 12.328125 -22.125 C 10.867188 -20.382812 10.140625 -18.304688 10.140625 -15.890625 C 10.140625 -13.484375 10.867188 -11.394531 12.328125 -9.625 C 13.796875 -7.863281 15.566406 -6.984375 17.640625 -6.984375 C 19.742188 -6.984375 21.53125 -7.851562 23 -9.59375 C 24.46875 -11.34375 25.203125 -13.441406 25.203125 -15.890625 C 25.203125 -18.347656 24.457031 -20.4375 22.96875 -22.15625 C 21.476562 -23.882812 19.679688 -24.75 17.578125 -24.75 Z M 17.578125 -24.75 "/></g></g></g><g fill="#ff914d" fill-opacity="1"><g transform="translate(413.144856, 509.178506)"><g><path d="M 12.28125 -54.78125 L 12.28125 0 L 3.234375 0 L 3.234375 -54.78125 Z M 12.28125 -54.78125 "/></g></g></g><g fill="#ff914d" fill-opacity="1"><g transform="translate(428.582752, 509.178506)"><g><path d="M 10.53125 -14.40625 C 10.53125 -11.78125 11.085938 -9.703125 12.203125 -8.171875 C 13.328125 -6.640625 14.859375 -5.875 16.796875 -5.875 C 18.304688 -5.875 19.546875 -6.28125 20.515625 -7.09375 C 21.484375 -7.914062 22.269531 -8.953125 22.875 -10.203125 L 31.203125 -8.84375 C 30.085938 -5.613281 28.25 -3.160156 25.6875 -1.484375 C 23.125 0.191406 20.160156 1.03125 16.796875 1.03125 C 12.097656 1.03125 8.285156 -0.492188 5.359375 -3.546875 C 2.429688 -6.609375 0.96875 -10.617188 0.96875 -15.578125 C 0.96875 -20.785156 2.34375 -24.945312 5.09375 -28.0625 C 7.851562 -31.1875 11.601562 -32.75 16.34375 -32.75 C 21.082031 -32.75 24.773438 -31.21875 27.421875 -28.15625 C 30.078125 -25.101562 31.40625 -20.78125 31.40625 -15.1875 L 31.40625 -14.40625 Z M 22.875 -20.03125 C 22.570312 -22.007812 21.859375 -23.566406 20.734375 -24.703125 C 19.617188 -25.847656 18.304688 -26.421875 16.796875 -26.421875 C 15.378906 -26.421875 14.109375 -25.90625 12.984375 -24.875 C 11.867188 -23.84375 11.140625 -22.226562 10.796875 -20.03125 Z M 22.875 -20.03125 "/></g></g></g><g fill="#ff914d" fill-opacity="1"><g transform="translate(460.944211, 509.178506)"><g><path d="M 31.65625 0 L 22.609375 0 L 22.609375 -18.34375 C 22.609375 -20.675781 22.265625 -22.453125 21.578125 -23.671875 C 20.890625 -24.898438 19.597656 -25.515625 17.703125 -25.515625 C 15.984375 -25.515625 14.648438 -24.835938 13.703125 -23.484375 C 12.753906 -22.128906 12.28125 -19.769531 12.28125 -16.40625 L 12.28125 0 L 3.234375 0 L 3.234375 -31.71875 L 12.28125 -31.71875 L 12.28125 -28.8125 L 12.40625 -28.8125 C 13.351562 -30.238281 14.554688 -31.25 16.015625 -31.84375 C 17.484375 -32.445312 19.035156 -32.75 20.671875 -32.75 C 24.335938 -32.75 27.082031 -31.640625 28.90625 -29.421875 C 30.738281 -27.210938 31.65625 -23.953125 31.65625 -19.640625 Z M 31.65625 0 "/></g></g></g><g fill="#ff914d" fill-opacity="1"><g transform="translate(495.824818, 509.178506)"><g><path d="M 33.28125 -54.78125 L 33.28125 0 L 24.234375 0 L 24.234375 -2.96875 L 24.09375 -2.96875 C 23.144531 -1.675781 21.894531 -0.6875 20.34375 0 C 18.800781 0.6875 17.210938 1.03125 15.578125 1.03125 C 11.390625 1.03125 7.90625 -0.601562 5.125 -3.875 C 2.351562 -7.144531 0.96875 -11.191406 0.96875 -16.015625 C 0.96875 -20.628906 2.351562 -24.570312 5.125 -27.84375 C 7.90625 -31.113281 11.34375 -32.75 15.4375 -32.75 C 17.070312 -32.75 18.675781 -32.40625 20.25 -31.71875 C 21.820312 -31.03125 23.101562 -30.0625 24.09375 -28.8125 L 24.234375 -28.8125 L 24.234375 -54.78125 Z M 17.578125 -24.75 C 15.546875 -24.75 13.796875 -23.875 12.328125 -22.125 C 10.867188 -20.382812 10.140625 -18.304688 10.140625 -15.890625 C 10.140625 -13.441406 10.867188 -11.34375 12.328125 -9.59375 C 13.796875 -7.851562 15.566406 -6.984375 17.640625 -6.984375 C 19.796875 -6.984375 21.582031 -7.882812 23 -9.6875 C 24.425781 -11.5 25.140625 -13.566406 25.140625 -15.890625 C 25.140625 -18.304688 24.40625 -20.382812 22.9375 -22.125 C 21.46875 -23.875 19.679688 -24.75 17.578125 -24.75 Z M 17.578125 -24.75 "/></g></g></g><g fill="#ff914d" fill-opacity="1"><g transform="translate(532.320275, 509.178506)"><g><path d="M 24.296875 -31.71875 L 33.203125 -31.71875 L 33.203125 0 L 24.296875 0 L 24.296875 -2.90625 L 24.15625 -2.90625 C 23.21875 -1.65625 21.960938 -0.6875 20.390625 0 C 18.816406 0.6875 17.210938 1.03125 15.578125 1.03125 C 11.390625 1.03125 7.90625 -0.613281 5.125 -3.90625 C 2.351562 -7.195312 0.96875 -11.234375 0.96875 -16.015625 C 0.96875 -18.992188 1.570312 -21.753906 2.78125 -24.296875 C 3.988281 -26.835938 5.695312 -28.878906 7.90625 -30.421875 C 10.125 -31.972656 12.632812 -32.75 15.4375 -32.75 C 17.070312 -32.75 18.675781 -32.40625 20.25 -31.71875 C 21.820312 -31.03125 23.171875 -30.039062 24.296875 -28.75 Z M 17.578125 -24.75 C 15.546875 -24.75 13.796875 -23.875 12.328125 -22.125 C 10.867188 -20.382812 10.140625 -18.304688 10.140625 -15.890625 C 10.140625 -13.484375 10.867188 -11.394531 12.328125 -9.625 C 13.796875 -7.863281 15.566406 -6.984375 17.640625 -6.984375 C 19.742188 -6.984375 21.53125 -7.851562 23 -9.59375 C 24.46875 -11.34375 25.203125 -13.441406 25.203125 -15.890625 C 25.203125 -18.347656 24.457031 -20.4375 22.96875 -22.15625 C 21.476562 -23.882812 19.679688 -24.75 17.578125 -24.75 Z M 17.578125 -24.75 "/></g></g></g><g fill="#ff914d" fill-opacity="1"><g transform="translate(568.815744, 509.178506)"><g><path d="M 22.9375 -23.578125 C 21.8125 -24.359375 20.5625 -24.75 19.1875 -24.75 C 16.863281 -24.75 15.128906 -23.960938 13.984375 -22.390625 C 12.847656 -20.816406 12.28125 -18.222656 12.28125 -14.609375 L 12.28125 0 L 3.234375 0 L 3.234375 -31.71875 L 12.28125 -31.71875 L 12.28125 -28.421875 L 12.40625 -28.421875 C 13.3125 -29.804688 14.429688 -30.875 15.765625 -31.625 C 17.097656 -32.375 18.601562 -32.75 20.28125 -32.75 C 21.53125 -32.707031 22.78125 -32.453125 24.03125 -31.984375 Z M 22.9375 -23.578125 "/></g></g></g></svg>