<svg xmlns="http://www.w3.org/2000/svg" xmlns:xlink="http://www.w3.org/1999/xlink" width="500" zoomAndPan="magnify" viewBox="0 0 375 374.999991" height="500" preserveAspectRatio="xMidYMid meet" version="1.0"><defs><g/><clipPath id="7db46c74ad"><path d="M 57.351562 172.328125 L 316.363281 172.328125 L 316.363281 202.378906 L 57.351562 202.378906 Z M 57.351562 172.328125 " clip-rule="nonzero"/></clipPath></defs><g fill="#194580" fill-opacity="1"><g transform="translate(182.438605, 243.271258)"><g><path d="M 49.765625 -114.9375 L 3.765625 -114.9375 L 3.765625 -112.203125 L 18.46875 -112.203125 L 18.46875 -28.5625 C 18.46875 -22.519531 19.632812 -17.472656 21.96875 -13.421875 C 24.3125 -9.378906 27.332031 -6.101562 31.03125 -3.59375 C 34.738281 -1.082031 38.875 0.679688 43.4375 1.703125 C 48 2.734375 52.503906 3.25 56.953125 3.25 C 67.785156 3.25 76.222656 0.597656 82.265625 -4.703125 C 88.304688 -10.003906 91.328125 -17.957031 91.328125 -28.5625 L 91.328125 -112.203125 L 106.046875 -112.203125 L 106.046875 -114.9375 L 73.890625 -114.9375 L 73.890625 -112.203125 L 88.59375 -112.203125 L 88.59375 -28.5625 C 88.59375 -24 87.878906 -19.921875 86.453125 -16.328125 C 85.023438 -12.742188 83.054688 -9.722656 80.546875 -7.265625 C 78.046875 -4.816406 75.113281 -2.960938 71.75 -1.703125 C 68.382812 -0.453125 64.765625 0.171875 60.890625 0.171875 C 52.910156 0.171875 46.609375 -2.304688 41.984375 -7.265625 C 37.367188 -12.222656 35.0625 -19.320312 35.0625 -28.5625 L 35.0625 -112.203125 L 49.765625 -112.203125 Z M 49.765625 -114.9375 "/></g></g></g><g fill="#38b6ff" fill-opacity="1"><g transform="translate(83.544219, 245.249984)"><g><path d="M 78.359375 -117.96875 L 73.328125 -111.546875 C 71.234375 -112.703125 69.257812 -113.742188 67.40625 -114.671875 C 65.5625 -115.597656 63.679688 -116.347656 61.765625 -116.921875 C 59.859375 -117.503906 57.832031 -117.941406 55.6875 -118.234375 C 53.539062 -118.523438 51.078125 -118.671875 48.296875 -118.671875 C 42.617188 -118.671875 37.550781 -117.742188 33.09375 -115.890625 C 28.632812 -114.035156 24.84375 -111.546875 21.71875 -108.421875 C 18.59375 -105.296875 16.21875 -101.703125 14.59375 -97.640625 C 12.96875 -93.585938 12.15625 -89.304688 12.15625 -84.796875 C 12.15625 -78.648438 14.035156 -73.03125 17.796875 -67.9375 C 21.566406 -62.84375 27.445312 -58.960938 35.4375 -56.296875 C 39.257812 -55.023438 42.503906 -53.984375 45.171875 -53.171875 C 47.835938 -52.359375 50.328125 -51.570312 52.640625 -50.8125 C 54.960938 -50.0625 57.3125 -49.253906 59.6875 -48.390625 C 62.0625 -47.523438 64.8125 -46.335938 67.9375 -44.828125 C 71.875 -42.972656 74.535156 -40.394531 75.921875 -37.09375 C 77.316406 -33.789062 78.015625 -30.460938 78.015625 -27.109375 C 78.015625 -22.929688 77.203125 -19.132812 75.578125 -15.71875 C 73.960938 -12.300781 71.820312 -9.4375 69.15625 -7.125 C 66.488281 -4.8125 63.414062 -3.015625 59.9375 -1.734375 C 56.46875 -0.460938 52.9375 0.171875 49.34375 0.171875 C 45.175781 0.171875 41.179688 -0.550781 37.359375 -2 C 33.535156 -3.445312 30 -5.5 26.75 -8.15625 C 23.507812 -10.820312 20.703125 -14.125 18.328125 -18.0625 C 15.953125 -22.007812 14.128906 -26.414062 12.859375 -31.28125 C 12.515625 -32.78125 11.878906 -33.53125 10.953125 -33.53125 C 10.140625 -33.53125 9.734375 -32.71875 9.734375 -31.09375 L 9.734375 0 C 9.734375 1.507812 10.253906 2.265625 11.296875 2.265625 C 11.992188 2.265625 12.742188 1.679688 13.546875 0.515625 L 19.8125 -8.515625 C 21.195312 -7.242188 22.898438 -5.910156 24.921875 -4.515625 C 26.953125 -3.128906 29.210938 -1.851562 31.703125 -0.6875 C 34.191406 0.46875 36.851562 1.421875 39.6875 2.171875 C 42.53125 2.921875 45.457031 3.296875 48.46875 3.296875 C 54.03125 3.296875 59.1875 2.28125 63.9375 0.25 C 68.6875 -1.769531 72.796875 -4.570312 76.265625 -8.15625 C 79.742188 -11.75 82.492188 -16.007812 84.515625 -20.9375 C 86.546875 -25.863281 87.5625 -31.160156 87.5625 -36.828125 C 87.5625 -44.585938 85.738281 -51.160156 82.09375 -56.546875 C 78.445312 -61.941406 72.6875 -65.796875 64.8125 -68.109375 C 62.144531 -68.921875 59.648438 -69.613281 57.328125 -70.1875 C 55.015625 -70.769531 52.640625 -71.410156 50.203125 -72.109375 C 47.773438 -72.804688 45.226562 -73.585938 42.5625 -74.453125 C 39.90625 -75.316406 36.953125 -76.390625 33.703125 -77.671875 C 30.117188 -79.054688 27.398438 -81.195312 25.546875 -84.09375 C 23.691406 -86.988281 22.765625 -90.347656 22.765625 -94.171875 C 22.765625 -97.765625 23.515625 -100.921875 25.015625 -103.640625 C 26.523438 -106.359375 28.46875 -108.585938 30.84375 -110.328125 C 33.21875 -112.066406 35.9375 -113.367188 39 -114.234375 C 42.070312 -115.109375 45.171875 -115.546875 48.296875 -115.546875 C 53.046875 -115.546875 57.21875 -114.734375 60.8125 -113.109375 C 64.40625 -111.484375 67.414062 -109.335938 69.84375 -106.671875 C 72.28125 -104.015625 74.222656 -100.945312 75.671875 -97.46875 C 77.117188 -94 78.070312 -90.410156 78.53125 -86.703125 C 78.644531 -85.546875 79.164062 -84.96875 80.09375 -84.96875 C 80.90625 -84.96875 81.3125 -85.546875 81.3125 -86.703125 L 81.3125 -117.625 C 81.3125 -118.78125 80.960938 -119.359375 80.265625 -119.359375 C 79.691406 -119.359375 79.054688 -118.894531 78.359375 -117.96875 Z M 78.359375 -117.96875 "/></g></g></g><g clip-path="url(#7db46c74ad)"><path fill="#fafafa" d="M 57.351562 172.328125 L 316.421875 172.328125 L 316.421875 202.378906 L 57.351562 202.378906 Z M 57.351562 172.328125 " fill-opacity="1" fill-rule="nonzero"/></g><g fill="#194580" fill-opacity="1"><g transform="translate(85.947684, 192.188498)"><g><path d="M 4.828125 0.1875 C 3.972656 0.1875 3.144531 0.0703125 2.34375 -0.15625 C 1.550781 -0.394531 0.914062 -0.695312 0.4375 -1.0625 L 1.28125 -2.953125 C 1.738281 -2.609375 2.285156 -2.332031 2.921875 -2.125 C 3.566406 -1.925781 4.207031 -1.828125 4.84375 -1.828125 C 5.550781 -1.828125 6.078125 -1.929688 6.421875 -2.140625 C 6.765625 -2.347656 6.9375 -2.628906 6.9375 -2.984375 C 6.9375 -3.234375 6.832031 -3.441406 6.625 -3.609375 C 6.425781 -3.785156 6.171875 -3.925781 5.859375 -4.03125 C 5.546875 -4.132812 5.117188 -4.25 4.578125 -4.375 C 3.753906 -4.5625 3.082031 -4.753906 2.5625 -4.953125 C 2.039062 -5.148438 1.585938 -5.460938 1.203125 -5.890625 C 0.828125 -6.328125 0.640625 -6.90625 0.640625 -7.625 C 0.640625 -8.25 0.8125 -8.816406 1.15625 -9.328125 C 1.5 -9.835938 2.007812 -10.238281 2.6875 -10.53125 C 3.375 -10.832031 4.210938 -10.984375 5.203125 -10.984375 C 5.890625 -10.984375 6.5625 -10.898438 7.21875 -10.734375 C 7.882812 -10.578125 8.460938 -10.34375 8.953125 -10.03125 L 8.1875 -8.140625 C 7.1875 -8.703125 6.1875 -8.984375 5.1875 -8.984375 C 4.488281 -8.984375 3.972656 -8.867188 3.640625 -8.640625 C 3.304688 -8.421875 3.140625 -8.125 3.140625 -7.75 C 3.140625 -7.375 3.332031 -7.097656 3.71875 -6.921875 C 4.101562 -6.742188 4.691406 -6.566406 5.484375 -6.390625 C 6.304688 -6.191406 6.976562 -5.992188 7.5 -5.796875 C 8.03125 -5.609375 8.484375 -5.300781 8.859375 -4.875 C 9.234375 -4.457031 9.421875 -3.890625 9.421875 -3.171875 C 9.421875 -2.546875 9.242188 -1.976562 8.890625 -1.46875 C 8.546875 -0.957031 8.03125 -0.550781 7.34375 -0.25 C 6.65625 0.0390625 5.816406 0.1875 4.828125 0.1875 Z M 4.828125 0.1875 "/></g></g></g><g fill="#194580" fill-opacity="1"><g transform="translate(101.139224, 192.188498)"><g><path d="M 8.390625 -2.3125 L 3.375 -2.3125 L 2.421875 0 L -0.140625 0 L 4.671875 -10.8125 L 7.140625 -10.8125 L 11.984375 0 L 9.359375 0 Z M 7.609375 -4.21875 L 5.890625 -8.359375 L 4.1875 -4.21875 Z M 7.609375 -4.21875 "/></g></g></g><g fill="#194580" fill-opacity="1"><g transform="translate(118.306266, 192.188498)"><g><path d="M 3.78125 -8.796875 L 3.78125 -5.9375 L 8.78125 -5.9375 L 8.78125 -3.9375 L 3.78125 -3.9375 L 3.78125 0 L 1.28125 0 L 1.28125 -10.8125 L 9.453125 -10.8125 L 9.453125 -8.796875 Z M 3.78125 -8.796875 "/></g></g></g><g fill="#194580" fill-opacity="1"><g transform="translate(133.513234, 192.188498)"><g><path d="M 8.390625 -2.3125 L 3.375 -2.3125 L 2.421875 0 L -0.140625 0 L 4.671875 -10.8125 L 7.140625 -10.8125 L 11.984375 0 L 9.359375 0 Z M 7.609375 -4.21875 L 5.890625 -8.359375 L 4.1875 -4.21875 Z M 7.609375 -4.21875 "/></g></g></g><g fill="#194580" fill-opacity="1"><g transform="translate(150.680275, 192.188498)"><g><path d="M 1.28125 -10.8125 L 3.78125 -10.8125 L 3.78125 -2.03125 L 9.203125 -2.03125 L 9.203125 0 L 1.28125 0 Z M 1.28125 -10.8125 "/></g></g></g><g fill="#38b6ff" fill-opacity="1"><g transform="translate(165.353929, 192.188498)"><g><path d="M 6.078125 0.1875 C 4.535156 0.1875 3.332031 -0.238281 2.46875 -1.09375 C 1.613281 -1.945312 1.1875 -3.164062 1.1875 -4.75 L 1.1875 -10.8125 L 3.6875 -10.8125 L 3.6875 -4.84375 C 3.6875 -2.90625 4.488281 -1.9375 6.09375 -1.9375 C 6.875 -1.9375 7.46875 -2.171875 7.875 -2.640625 C 8.289062 -3.109375 8.5 -3.84375 8.5 -4.84375 L 8.5 -10.8125 L 10.96875 -10.8125 L 10.96875 -4.75 C 10.96875 -3.164062 10.535156 -1.945312 9.671875 -1.09375 C 8.816406 -0.238281 7.617188 0.1875 6.078125 0.1875 Z M 6.078125 0.1875 "/></g></g></g><g fill="#38b6ff" fill-opacity="1"><g transform="translate(182.860505, 192.188498)"><g><path d="M 3.515625 -8.765625 L 0.0625 -8.765625 L 0.0625 -10.8125 L 9.484375 -10.8125 L 9.484375 -8.765625 L 6.015625 -8.765625 L 6.015625 0 L 3.515625 0 Z M 3.515625 -8.765625 "/></g></g></g><g fill="#38b6ff" fill-opacity="1"><g transform="translate(197.743375, 192.188498)"><g><path d="M 1.28125 -10.8125 L 3.78125 -10.8125 L 3.78125 0 L 1.28125 0 Z M 1.28125 -10.8125 "/></g></g></g><g fill="#38b6ff" fill-opacity="1"><g transform="translate(208.150497, 192.188498)"><g><path d="M 1.28125 -10.8125 L 3.78125 -10.8125 L 3.78125 -2.03125 L 9.203125 -2.03125 L 9.203125 0 L 1.28125 0 Z M 1.28125 -10.8125 "/></g></g></g><g fill="#38b6ff" fill-opacity="1"><g transform="translate(222.81729, 192.188498)"><g><path d="M 1.28125 -10.8125 L 3.78125 -10.8125 L 3.78125 0 L 1.28125 0 Z M 1.28125 -10.8125 "/></g></g></g><g fill="#38b6ff" fill-opacity="1"><g transform="translate(233.224409, 192.188498)"><g><path d="M 3.515625 -8.765625 L 0.0625 -8.765625 L 0.0625 -10.8125 L 9.484375 -10.8125 L 9.484375 -8.765625 L 6.015625 -8.765625 L 6.015625 0 L 3.515625 0 Z M 3.515625 -8.765625 "/></g></g></g><g fill="#38b6ff" fill-opacity="1"><g transform="translate(248.107278, 192.188498)"><g><path d="M 1.28125 -10.8125 L 3.78125 -10.8125 L 3.78125 0 L 1.28125 0 Z M 1.28125 -10.8125 "/></g></g></g><g fill="#38b6ff" fill-opacity="1"><g transform="translate(258.514397, 192.188498)"><g><path d="M 9.65625 -2 L 9.65625 0 L 1.28125 0 L 1.28125 -10.8125 L 9.453125 -10.8125 L 9.453125 -8.796875 L 3.765625 -8.796875 L 3.765625 -6.453125 L 8.78125 -6.453125 L 8.78125 -4.5 L 3.765625 -4.5 L 3.765625 -2 Z M 9.65625 -2 "/></g></g></g><g fill="#38b6ff" fill-opacity="1"><g transform="translate(274.215249, 192.188498)"><g><path d="M 4.828125 0.1875 C 3.972656 0.1875 3.144531 0.0703125 2.34375 -0.15625 C 1.550781 -0.394531 0.914062 -0.695312 0.4375 -1.0625 L 1.28125 -2.953125 C 1.738281 -2.609375 2.285156 -2.332031 2.921875 -2.125 C 3.566406 -1.925781 4.207031 -1.828125 4.84375 -1.828125 C 5.550781 -1.828125 6.078125 -1.929688 6.421875 -2.140625 C 6.765625 -2.347656 6.9375 -2.628906 6.9375 -2.984375 C 6.9375 -3.234375 6.832031 -3.441406 6.625 -3.609375 C 6.425781 -3.785156 6.171875 -3.925781 5.859375 -4.03125 C 5.546875 -4.132812 5.117188 -4.25 4.578125 -4.375 C 3.753906 -4.5625 3.082031 -4.753906 2.5625 -4.953125 C 2.039062 -5.148438 1.585938 -5.460938 1.203125 -5.890625 C 0.828125 -6.328125 0.640625 -6.90625 0.640625 -7.625 C 0.640625 -8.25 0.8125 -8.816406 1.15625 -9.328125 C 1.5 -9.835938 2.007812 -10.238281 2.6875 -10.53125 C 3.375 -10.832031 4.210938 -10.984375 5.203125 -10.984375 C 5.890625 -10.984375 6.5625 -10.898438 7.21875 -10.734375 C 7.882812 -10.578125 8.460938 -10.34375 8.953125 -10.03125 L 8.1875 -8.140625 C 7.1875 -8.703125 6.1875 -8.984375 5.1875 -8.984375 C 4.488281 -8.984375 3.972656 -8.867188 3.640625 -8.640625 C 3.304688 -8.421875 3.140625 -8.125 3.140625 -7.75 C 3.140625 -7.375 3.332031 -7.097656 3.71875 -6.921875 C 4.101562 -6.742188 4.691406 -6.566406 5.484375 -6.390625 C 6.304688 -6.191406 6.976562 -5.992188 7.5 -5.796875 C 8.03125 -5.609375 8.484375 -5.300781 8.859375 -4.875 C 9.234375 -4.457031 9.421875 -3.890625 9.421875 -3.171875 C 9.421875 -2.546875 9.242188 -1.976562 8.890625 -1.46875 C 8.546875 -0.957031 8.03125 -0.550781 7.34375 -0.25 C 6.65625 0.0390625 5.816406 0.1875 4.828125 0.1875 Z M 4.828125 0.1875 "/></g></g></g><g fill="#194580" fill-opacity="1"><g transform="translate(174.456876, 264.402772)"><g><path d="M 1.703125 -4.25 L 0.03125 -4.25 L 0.03125 -5.234375 L 4.578125 -5.234375 L 4.578125 -4.25 L 2.90625 -4.25 L 2.90625 0 L 1.703125 0 Z M 1.703125 -4.25 "/></g></g></g><g fill="#194580" fill-opacity="1"><g transform="translate(184.280357, 264.402772)"><g><path d="M 5.421875 -5.234375 L 5.421875 0 L 4.203125 0 L 4.203125 -2.140625 L 1.828125 -2.140625 L 1.828125 0 L 0.625 0 L 0.625 -5.234375 L 1.828125 -5.234375 L 1.828125 -3.171875 L 4.203125 -3.171875 L 4.203125 -5.234375 Z M 5.421875 -5.234375 "/></g></g></g><g fill="#194580" fill-opacity="1"><g transform="translate(195.523215, 264.402772)"><g><path d="M 4.671875 -0.96875 L 4.671875 0 L 0.625 0 L 0.625 -5.234375 L 4.578125 -5.234375 L 4.578125 -4.25 L 1.828125 -4.25 L 1.828125 -3.125 L 4.25 -3.125 L 4.25 -2.1875 L 1.828125 -2.1875 L 1.828125 -0.96875 Z M 4.671875 -0.96875 "/></g></g></g><g fill="#194580" fill-opacity="1"><g transform="translate(152.328041, 274.36318)"><g><path d="M 1.703125 -4.25 L 0.03125 -4.25 L 0.03125 -5.234375 L 4.578125 -5.234375 L 4.578125 -4.25 L 2.90625 -4.25 L 2.90625 0 L 1.703125 0 Z M 1.703125 -4.25 "/></g></g></g><g fill="#194580" fill-opacity="1"><g transform="translate(162.151522, 274.36318)"><g><path d="M 3.15625 0.09375 C 2.613281 0.09375 2.125 -0.0195312 1.6875 -0.25 C 1.25 -0.488281 0.90625 -0.8125 0.65625 -1.21875 C 0.414062 -1.632812 0.296875 -2.097656 0.296875 -2.609375 C 0.296875 -3.128906 0.414062 -3.59375 0.65625 -4 C 0.90625 -4.40625 1.25 -4.722656 1.6875 -4.953125 C 2.125 -5.191406 2.613281 -5.3125 3.15625 -5.3125 C 3.695312 -5.3125 4.179688 -5.191406 4.609375 -4.953125 C 5.046875 -4.722656 5.390625 -4.40625 5.640625 -4 C 5.890625 -3.59375 6.015625 -3.128906 6.015625 -2.609375 C 6.015625 -2.097656 5.890625 -1.632812 5.640625 -1.21875 C 5.390625 -0.8125 5.046875 -0.488281 4.609375 -0.25 C 4.179688 -0.0195312 3.695312 0.09375 3.15625 0.09375 Z M 3.15625 -0.9375 C 3.457031 -0.9375 3.734375 -1.003906 3.984375 -1.140625 C 4.234375 -1.285156 4.425781 -1.484375 4.5625 -1.734375 C 4.707031 -1.992188 4.78125 -2.285156 4.78125 -2.609375 C 4.78125 -2.929688 4.707031 -3.21875 4.5625 -3.46875 C 4.425781 -3.726562 4.234375 -3.925781 3.984375 -4.0625 C 3.734375 -4.207031 3.457031 -4.28125 3.15625 -4.28125 C 2.84375 -4.28125 2.5625 -4.207031 2.3125 -4.0625 C 2.0625 -3.925781 1.863281 -3.726562 1.71875 -3.46875 C 1.582031 -3.21875 1.515625 -2.929688 1.515625 -2.609375 C 1.515625 -2.285156 1.582031 -1.992188 1.71875 -1.734375 C 1.863281 -1.484375 2.0625 -1.285156 2.3125 -1.140625 C 2.5625 -1.003906 2.84375 -0.9375 3.15625 -0.9375 Z M 3.15625 -0.9375 "/></g></g></g><g fill="#194580" fill-opacity="1"><g transform="translate(173.663305, 274.36318)"><g><path d="M 3.15625 0.09375 C 2.613281 0.09375 2.125 -0.0195312 1.6875 -0.25 C 1.25 -0.488281 0.90625 -0.8125 0.65625 -1.21875 C 0.414062 -1.632812 0.296875 -2.097656 0.296875 -2.609375 C 0.296875 -3.128906 0.414062 -3.59375 0.65625 -4 C 0.90625 -4.40625 1.25 -4.722656 1.6875 -4.953125 C 2.125 -5.191406 2.613281 -5.3125 3.15625 -5.3125 C 3.695312 -5.3125 4.179688 -5.191406 4.609375 -4.953125 C 5.046875 -4.722656 5.390625 -4.40625 5.640625 -4 C 5.890625 -3.59375 6.015625 -3.128906 6.015625 -2.609375 C 6.015625 -2.097656 5.890625 -1.632812 5.640625 -1.21875 C 5.390625 -0.8125 5.046875 -0.488281 4.609375 -0.25 C 4.179688 -0.0195312 3.695312 0.09375 3.15625 0.09375 Z M 3.15625 -0.9375 C 3.457031 -0.9375 3.734375 -1.003906 3.984375 -1.140625 C 4.234375 -1.285156 4.425781 -1.484375 4.5625 -1.734375 C 4.707031 -1.992188 4.78125 -2.285156 4.78125 -2.609375 C 4.78125 -2.929688 4.707031 -3.21875 4.5625 -3.46875 C 4.425781 -3.726562 4.234375 -3.925781 3.984375 -4.0625 C 3.734375 -4.207031 3.457031 -4.28125 3.15625 -4.28125 C 2.84375 -4.28125 2.5625 -4.207031 2.3125 -4.0625 C 2.0625 -3.925781 1.863281 -3.726562 1.71875 -3.46875 C 1.582031 -3.21875 1.515625 -2.929688 1.515625 -2.609375 C 1.515625 -2.285156 1.582031 -1.992188 1.71875 -1.734375 C 1.863281 -1.484375 2.0625 -1.285156 2.3125 -1.140625 C 2.5625 -1.003906 2.84375 -0.9375 3.15625 -0.9375 Z M 3.15625 -0.9375 "/></g></g></g><g fill="#194580" fill-opacity="1"><g transform="translate(185.175089, 274.36318)"><g><path d="M 0.625 -5.234375 L 1.828125 -5.234375 L 1.828125 -0.984375 L 4.453125 -0.984375 L 4.453125 0 L 0.625 0 Z M 0.625 -5.234375 "/></g></g></g><g fill="#194580" fill-opacity="1"><g transform="translate(194.893985, 274.36318)"><g><path d="M 4.453125 -2.71875 C 4.753906 -2.625 4.988281 -2.460938 5.15625 -2.234375 C 5.332031 -2.015625 5.421875 -1.742188 5.421875 -1.421875 C 5.421875 -0.960938 5.238281 -0.609375 4.875 -0.359375 C 4.519531 -0.117188 4.003906 0 3.328125 0 L 0.625 0 L 0.625 -5.234375 L 3.171875 -5.234375 C 3.804688 -5.234375 4.296875 -5.109375 4.640625 -4.859375 C 4.984375 -4.617188 5.15625 -4.289062 5.15625 -3.875 C 5.15625 -3.613281 5.09375 -3.382812 4.96875 -3.1875 C 4.84375 -2.988281 4.671875 -2.832031 4.453125 -2.71875 Z M 1.828125 -4.3125 L 1.828125 -3.078125 L 3.03125 -3.078125 C 3.320312 -3.078125 3.546875 -3.128906 3.703125 -3.234375 C 3.859375 -3.335938 3.9375 -3.492188 3.9375 -3.703125 C 3.9375 -3.910156 3.859375 -4.0625 3.703125 -4.15625 C 3.546875 -4.257812 3.320312 -4.3125 3.03125 -4.3125 Z M 3.234375 -0.90625 C 3.554688 -0.90625 3.796875 -0.957031 3.953125 -1.0625 C 4.117188 -1.164062 4.203125 -1.328125 4.203125 -1.546875 C 4.203125 -1.984375 3.878906 -2.203125 3.234375 -2.203125 L 1.828125 -2.203125 L 1.828125 -0.90625 Z M 3.234375 -0.90625 "/></g></g></g><g fill="#194580" fill-opacity="1"><g transform="translate(205.815613, 274.36318)"><g><path d="M 3.15625 0.09375 C 2.613281 0.09375 2.125 -0.0195312 1.6875 -0.25 C 1.25 -0.488281 0.90625 -0.8125 0.65625 -1.21875 C 0.414062 -1.632812 0.296875 -2.097656 0.296875 -2.609375 C 0.296875 -3.128906 0.414062 -3.59375 0.65625 -4 C 0.90625 -4.40625 1.25 -4.722656 1.6875 -4.953125 C 2.125 -5.191406 2.613281 -5.3125 3.15625 -5.3125 C 3.695312 -5.3125 4.179688 -5.191406 4.609375 -4.953125 C 5.046875 -4.722656 5.390625 -4.40625 5.640625 -4 C 5.890625 -3.59375 6.015625 -3.128906 6.015625 -2.609375 C 6.015625 -2.097656 5.890625 -1.632812 5.640625 -1.21875 C 5.390625 -0.8125 5.046875 -0.488281 4.609375 -0.25 C 4.179688 -0.0195312 3.695312 0.09375 3.15625 0.09375 Z M 3.15625 -0.9375 C 3.457031 -0.9375 3.734375 -1.003906 3.984375 -1.140625 C 4.234375 -1.285156 4.425781 -1.484375 4.5625 -1.734375 C 4.707031 -1.992188 4.78125 -2.285156 4.78125 -2.609375 C 4.78125 -2.929688 4.707031 -3.21875 4.5625 -3.46875 C 4.425781 -3.726562 4.234375 -3.925781 3.984375 -4.0625 C 3.734375 -4.207031 3.457031 -4.28125 3.15625 -4.28125 C 2.84375 -4.28125 2.5625 -4.207031 2.3125 -4.0625 C 2.0625 -3.925781 1.863281 -3.726562 1.71875 -3.46875 C 1.582031 -3.21875 1.515625 -2.929688 1.515625 -2.609375 C 1.515625 -2.285156 1.582031 -1.992188 1.71875 -1.734375 C 1.863281 -1.484375 2.0625 -1.285156 2.3125 -1.140625 C 2.5625 -1.003906 2.84375 -0.9375 3.15625 -0.9375 Z M 3.15625 -0.9375 "/></g></g></g><g fill="#194580" fill-opacity="1"><g transform="translate(217.327395, 274.36318)"><g><path d="M 3.90625 0 L 2.65625 -1.8125 L 1.40625 0 L 0.015625 0 L 1.953125 -2.65625 L 0.125 -5.234375 L 1.5 -5.234375 L 2.703125 -3.53125 L 3.875 -5.234375 L 5.1875 -5.234375 L 3.359375 -2.703125 L 5.3125 0 Z M 3.90625 0 "/></g></g></g></svg>