<svg width="1024" height="1024" viewBox="0 0 1024 1024" fill="none" xmlns="http://www.w3.org/2000/svg">
<rect width="1024" height="1024" rx="90" fill="#EAF2DB"/>
<path d="M775.961 389.807C773.239 383.965 770.316 378.244 767.232 372.638C763.773 378.414 760.133 384.311 756.197 390.394C765.944 411.021 772.853 433.41 776.327 457.164C795.224 586.311 705.955 706.335 576.937 725.251C447.924 744.166 328.016 654.807 309.119 525.66C290.523 398.58 376.694 280.398 502.383 258.631L502.318 258.566C502.749 258.506 503.18 258.476 503.611 258.421C505.246 258.145 506.86 257.818 508.51 257.578C518.617 256.097 528.655 255.354 538.602 255.169C581.77 252.719 624.467 256.263 666.712 265.427C608.924 228.539 538.161 211.435 465.016 222.16C303.348 245.859 191.483 396.271 215.162 558.106C238.842 719.946 389.103 831.924 550.78 808.221C578.3 804.186 604.327 796.402 628.538 785.596C621.474 838.017 595.362 883.181 534.24 915C633.14 880.807 709.424 826.84 755.34 746.324C784.88 691.906 804.915 636.855 810.32 580.826C814.351 535.808 811.458 489.198 798.036 443.573C792.231 425.811 784.921 407.894 775.961 389.807Z" fill="url(#paint0_radial_299_2)"/>
<path d="M577.134 725.317C447.991 744.235 327.962 654.864 309.047 525.7C290.432 398.603 376.69 280.406 502.505 258.637L502.44 258.571C502.871 258.511 503.303 258.481 503.735 258.426C505.371 258.15 506.987 257.823 508.638 257.583C518.756 256.102 528.803 255.359 538.761 255.173C581.972 252.724 624.712 256.267 667 265.433C609.154 228.54 538.319 211.434 465.1 222.161C371.661 235.843 294.919 291.815 251.235 367.794C220.927 424.162 216.676 500.778 234.699 570.412C266.708 679.354 338.632 739.898 436.553 753.641C503.007 762.084 576.035 748.311 644.099 705.088L644.089 705.078C623.407 714.876 600.953 721.828 577.134 725.317Z" fill="url(#paint1_radial_299_2)"/>
<path d="M775.988 457.262C791.847 565.569 731.453 667.431 635.332 708.478C638.108 707.29 640.853 706.062 643.569 704.779L643.579 704.789C575.624 747.947 502.713 761.694 436.366 753.269C338.601 739.547 266.792 679.093 234.834 570.315C216.845 500.785 221.085 424.284 251.344 368C219.416 423.532 205.15 489.759 215.152 558.066C238.818 719.685 388.989 831.51 550.57 807.839C578.074 803.809 604.085 796.036 628.282 785.245C790.098 704.438 856.35 544.474 766.898 372.847C763.441 378.615 759.803 384.504 755.87 390.579C765.611 411.177 772.515 433.541 775.988 457.262Z" fill="url(#paint2_radial_299_2)"/>
<path d="M515 628C524.389 628 532 620.165 532 610.5C532 600.835 524.389 593 515 593C505.611 593 498 600.835 498 610.5C498 620.165 505.611 628 515 628Z" fill="url(#paint3_radial_299_2)"/>
<path d="M582.5 628C592.165 628 600 620.165 600 610.5C600 600.835 592.165 593 582.5 593C572.835 593 565 600.835 565 610.5C565 620.165 572.835 628 582.5 628Z" fill="url(#paint4_radial_299_2)"/>
<path d="M650.5 628C660.165 628 668 620.165 668 610.5C668 600.835 660.165 593 650.5 593C640.835 593 633 600.835 633 610.5C633 620.165 640.835 628 650.5 628Z" fill="url(#paint5_radial_299_2)"/>
<path d="M788.983 110.912C777.236 120.339 767.594 132.104 758.657 144.14C734.489 177.006 714.002 214.267 709.364 255.32C708.619 246.199 709.279 237.039 710.527 227.993C711.001 224.832 711.529 221.682 712.159 218.551C712.31 216.484 714.057 213.243 712.541 211.522C711.978 211.031 711.056 211.036 710.492 211.527C700.991 225.585 693.534 241.423 689.682 257.989C685.126 281.373 688.464 305.234 691.943 328.518C685.685 316.191 684.26 302.214 680.494 289.12C677.382 285.482 675.796 293.093 674.799 295.2C670.177 307.828 667.342 321.113 665.806 334.453C664.548 347.798 665.655 361.228 667.473 374.473C669.17 387.597 671.033 400.707 673.847 413.64C675.7 422.681 677.78 431.727 678.122 440.978C678.419 445.779 678.434 450.595 678.112 455.392C677.976 455.878 677.956 456.42 677.845 456.902C676.899 463.113 675.725 469.278 674.376 475.414C673.233 481.279 672.095 487.144 670.992 493.019C670.59 493.681 670.413 494.654 670.267 495.362C669.562 498.357 668.923 501.377 668.324 504.392C665.736 516.307 662.972 528.178 660.62 540.143C659.004 548.577 657.509 557.03 655.963 565.474C655.369 569.166 654.563 572.823 654.145 576.541C653.914 578.136 653.702 580.409 655.676 580.931C657.468 581.352 658.475 579.772 658.742 578.237C659.518 575.553 659.88 572.763 660.363 570.019C660.379 569.919 660.399 569.818 660.414 569.718C661.209 566.256 661.909 562.769 662.564 559.278C662.74 558.485 662.916 557.687 663.087 556.895C664.366 549.169 665.967 541.513 667.453 533.827C667.755 532.276 668.067 530.731 668.379 529.186C671.813 513.633 675.68 498.176 679.069 482.619C679.597 480.562 680.121 478.505 680.619 476.443C681.506 472.575 682.432 468.707 683.444 464.859C684.632 462.084 685.906 459.345 687.286 456.661C696.223 439.774 707.929 424.402 720.895 410.394C726.881 403.908 733.392 397.922 739.272 391.34C753.124 375.828 762.459 356.974 770.545 337.995C775.006 327.479 778.697 316.648 782.025 305.726C782.861 302.991 783.701 300.257 784.492 297.513C784.849 295.727 786.521 292.887 784.291 291.758C781.894 291.151 779.845 295.225 778.178 296.76C775.363 300.067 772.519 303.348 769.588 306.559C759.327 317.661 748.95 328.608 737.863 338.918C747.344 327.419 755.797 315.127 764.362 302.946C770.897 293.419 777.247 283.691 782.065 273.171C786.828 262.595 790.826 251.653 793.928 240.475C796.873 229.262 798.605 217.778 800.831 206.41C802.553 195.95 790.65 206.706 787.583 209.099C783.143 212.566 778.868 216.233 774.492 219.78C771.839 221.897 769.196 224.03 766.547 226.152C769.553 222.79 772.373 219.279 774.709 215.405C781.587 203.796 788.278 191.555 790.594 178.129C791.893 169.405 791.199 160.545 790.695 151.775C790.136 143.081 789.688 134.331 790.665 125.652C791.143 121.694 791.778 117.755 792.518 113.837C793.57 110.596 791.863 108.8 788.983 110.912ZM715.678 332.165C710.729 354.526 705.246 376.756 699.611 398.961C694.768 417.559 689.823 436.162 683.001 454.198C686.067 441.133 688.449 427.944 691.022 414.779C692.91 405.985 695.211 397.29 697.341 388.556C701.5 371.744 703.811 354.541 707.99 337.739C710.799 326.441 713.931 315.233 716.861 303.97C726.75 264.672 741.085 226.618 758.995 190.265C741.855 236.743 727.838 284.128 715.678 332.165Z" fill="url(#paint6_radial_299_2)"/>
<path d="M451.635 399.683C460.38 394.629 464.755 385.565 464.755 372.49C464.755 368.675 463.21 364.76 460.12 360.755C457.03 356.75 451.375 354.742 443.155 354.742C434.93 354.742 428.395 356.961 423.55 361.398C418.7 365.835 416.28 371.632 416.28 378.789C416.28 385.941 417.23 391.668 419.13 395.964C422.55 403.884 428.54 411.614 437.095 419.147L449.07 430.024C459.715 439.565 466.94 447.485 470.745 453.784C478.255 466.477 482.01 479.356 482.01 492.426C482.01 516.759 473.645 535.56 456.915 548.821C441.8 560.937 422.785 567 399.88 567C371.555 567 352.59 557.89 342.99 539.661C339.66 533.272 338 525.828 338 517.336C338 501.973 342.37 490.002 351.12 481.409C359.865 472.822 369.655 468.53 380.49 468.53C391.325 468.53 399.07 471.818 403.73 478.403C405.535 480.887 406.53 484.034 406.725 487.849C391.8 487.849 381.44 492.768 375.645 502.595C373.555 506.123 372.505 510.083 372.505 514.475C372.505 522.777 374.95 529.693 379.85 535.229C384.745 540.765 391.9 543.531 401.31 543.531C410.72 543.531 418.585 540.143 424.91 533.367C431.23 526.591 434.39 518.004 434.39 507.604C434.39 497.204 432.915 488.642 429.97 481.911C427.025 475.186 423.315 468.912 418.85 463.09C414.38 457.267 409.58 451.711 404.45 446.416C399.315 441.121 394.515 435.756 390.05 430.315C379.685 417.722 374.51 405.46 374.51 393.53C374.51 378.453 380.995 365.93 393.97 355.957C406.945 345.989 422.935 341 441.95 341C465.425 341 480.255 348.157 486.435 362.467C488.145 366.286 489 371.697 489 378.714C489 385.725 486.86 392.004 482.585 397.535C478.31 403.071 472.96 405.837 466.545 405.837C460.12 405.837 455.15 403.789 451.635 399.683Z" fill="#90AA3C"/>
<path d="M608.442 446.182C620.591 449.612 626.66 458.225 626.66 472.023C626.66 480.167 624.505 492.04 620.199 507.638C615.888 523.241 613.732 533.399 613.732 538.113C613.732 547.802 617.179 553.926 624.072 556.501C613.044 559.5 604.302 561 597.846 561C584.059 561 577.166 555.131 577.166 543.388C577.251 537.219 579.597 525.965 584.21 509.638C588.817 493.31 591.163 481.462 591.254 474.088C591.254 462.175 585.958 456.216 575.357 456.216C573.116 456.216 570.187 456.56 566.574 457.24L545.382 556.501H507.393L543.312 388.966L582.466 383.821L569.549 444.637H571.614C582.125 444.637 591.018 439.688 598.298 429.789C605.573 419.891 609.216 409.093 609.216 397.389C609.216 385.691 603.92 377.697 593.319 373.413C589.706 371.873 583.928 371.098 576.005 371.098C568.077 371.098 559.721 372.558 550.939 375.468C542.151 378.382 534.655 382.581 528.45 388.066C515.271 399.724 508.679 415.412 508.679 435.124C508.679 442.238 509.674 447.597 511.654 451.196C512.086 451.881 512.302 452.481 512.302 452.996C498.174 452.996 489.341 448.492 485.809 439.493C484.603 436.234 484 432.209 484 427.405C484 418.576 486.778 410.072 492.335 401.884C497.892 393.7 505.062 386.436 513.849 380.087C533.921 366.034 554.36 359 575.166 359C595.967 359 611.477 363.049 621.686 371.153C631.89 379.252 637 389.261 637 401.174C637 409.318 634.523 417.481 629.569 425.665C624.61 433.864 617.571 440.698 608.442 446.182Z" fill="#422C12"/>
<defs>
<radialGradient id="paint0_radial_299_2" cx="0" cy="0" r="1" gradientUnits="userSpaceOnUse" gradientTransform="translate(528.429 296.156) rotate(-8.34014) scale(746.228 746.947)">
<stop stop-color="#C5D82F"/>
<stop offset="0.2979" stop-color="#9CBA39"/>
<stop offset="0.9611" stop-color="#378741"/>
<stop offset="1" stop-color="#2F8542"/>
</radialGradient>
<radialGradient id="paint1_radial_299_2" cx="0" cy="0" r="1" gradientUnits="userSpaceOnUse" gradientTransform="translate(588.659 664.953) rotate(-8.33293) scale(745.265 745.357)">
<stop stop-color="#C5D82F"/>
<stop offset="0.2979" stop-color="#9CBA39"/>
<stop offset="0.9611" stop-color="#378741"/>
<stop offset="1" stop-color="#2F8542"/>
</radialGradient>
<radialGradient id="paint2_radial_299_2" cx="0" cy="0" r="1" gradientUnits="userSpaceOnUse" gradientTransform="translate(449.685 216.765) rotate(-8.33378) scale(619.745 619.883)">
<stop stop-color="#FFD108"/>
<stop offset="0.1242" stop-color="#FECC0C"/>
<stop offset="0.2922" stop-color="#FCC014"/>
<stop offset="0.4851" stop-color="#F9AB1B"/>
<stop offset="0.6967" stop-color="#F6901F"/>
<stop offset="0.921" stop-color="#F26C22"/>
<stop offset="0.9946" stop-color="#F15D22"/>
</radialGradient>
<radialGradient id="paint3_radial_299_2" cx="0" cy="0" r="1" gradientUnits="userSpaceOnUse" gradientTransform="translate(562.187 338.473) scale(551.163 567.374)">
<stop stop-color="#FFD108"/>
<stop offset="0.1676" stop-color="#FBB717"/>
<stop offset="0.4441" stop-color="#F6911F"/>
<stop offset="0.6841" stop-color="#F37721"/>
<stop offset="0.8756" stop-color="#F26422"/>
<stop offset="0.9946" stop-color="#F15D22"/>
</radialGradient>
<radialGradient id="paint4_radial_299_2" cx="0" cy="0" r="1" gradientUnits="userSpaceOnUse" gradientTransform="translate(631.073 338.474) scale(567.374)">
<stop stop-color="#FFD108"/>
<stop offset="0.1676" stop-color="#FBB717"/>
<stop offset="0.4441" stop-color="#F6911F"/>
<stop offset="0.6841" stop-color="#F37721"/>
<stop offset="0.8756" stop-color="#F26422"/>
<stop offset="0.9946" stop-color="#F15D22"/>
</radialGradient>
<radialGradient id="paint5_radial_299_2" cx="0" cy="0" r="1" gradientUnits="userSpaceOnUse" gradientTransform="translate(699.071 338.473) scale(567.374)">
<stop stop-color="#FFD108"/>
<stop offset="0.1676" stop-color="#FBB717"/>
<stop offset="0.4441" stop-color="#F6911F"/>
<stop offset="0.6841" stop-color="#F37721"/>
<stop offset="0.8756" stop-color="#F26422"/>
<stop offset="0.9946" stop-color="#F15D22"/>
</radialGradient>
<radialGradient id="paint6_radial_299_2" cx="0" cy="0" r="1" gradientUnits="userSpaceOnUse" gradientTransform="translate(723.562 345.545) rotate(-29.4555) scale(174.284 173.962)">
<stop stop-color="#C5D82F"/>
<stop offset="0.2979" stop-color="#9CBA39"/>
<stop offset="0.9611" stop-color="#378741"/>
<stop offset="1" stop-color="#2F8542"/>
</radialGradient>
</defs>
</svg>
