<svg version="1.2" xmlns="http://www.w3.org/2000/svg" viewBox="0 0 205 205" width="205" height="205">
	<title>login-logo-svg</title>
	<style>
		.s0 { fill: #ffffff } 
		.s1 { fill: #24cfad } 
		.s2 { fill: #4318ff } 
		.s3 { fill: #000000 } 
	</style>
	<path class="s0" d="m102.9 1c55.9 0 101.3 45.3 101.3 101.3 0 55.9-45.4 101.3-101.3 101.3-56 0-101.3-45.4-101.3-101.3 0-56 45.3-101.3 101.3-101.3z"/>
	<path class="s1" d="m102.9 89.1c-7.1 0-12.8-5.5-12.8-12.4 0-6.9 5.7-12.4 12.8-12.4 7.1 0 12.8 5.5 12.8 12.4 0 6.9-5.7 12.4-12.8 12.4z"/>
	<path fill-rule="evenodd" class="s2" d="m168.3 102.3c0 36.3-29.3 65.7-65.4 65.7-35.6 0-64.6-28.7-65.4-64.3h-9.5c0.8 40.9 34 73.8 74.9 73.8 41.3 0 74.8-33.7 74.8-75.2 0-5.6-0.6-11-1.7-16.2v-0.2h-9.8-40.3v0.1l-0.1-0.1-24.7 43.4-24.2-43-0.1 0.1v-0.3l-37.2-0.3c7.3-28.3 32.8-49.2 63.3-49.2 23.6 0 44.3 12.6 55.8 31.5h10.9c-12.4-24.4-37.6-41-66.7-41-35.7 0-65.5 25-73.1 58.6l-1.7 8.5h43.7l25.7 45.6 3.6 6.3 3.6-6.3 25.9-45.6h37.2q0.4 4 0.5 8.1z"/>
	<path fill-rule="evenodd" class="s2" d="m-166 313.4q-6.1 0-11-2.1-4.9-2.2-7.7-6.1-2.8-4-2.8-9.2h10.6q0.4 3.9 3.1 6.5 2.8 2.5 7.8 2.5 5.2 0 8.1-2.5 2.8-2.5 2.8-6.4 0-3.1-1.8-5-1.7-1.9-4.5-3-2.6-1.1-7.3-2.3-6-1.6-9.7-3.1-3.7-1.7-6.3-5.1-2.7-3.4-2.7-9.1 0-5.3 2.7-9.2 2.6-3.9 7.3-6 4.7-2.1 11-2.1 8.8 0 14.4 4.4 5.7 4.4 6.3 12.1h-11q-0.3-3.3-3.2-5.7-2.9-2.4-7.6-2.4-4.3 0-7 2.2-2.7 2.2-2.7 6.3 0 2.8 1.7 4.7 1.7 1.7 4.3 2.8 2.7 1 7.2 2.3 6.1 1.6 9.8 3.3 3.9 1.6 6.5 5.1 2.7 3.5 2.7 9.2 0 4.7-2.5 8.8-2.5 4.1-7.3 6.7-4.7 2.4-11.2 2.4zm29.5-24.9q0-7.3 2.9-12.9 3.1-5.6 8.3-8.7 5.2-3.1 11.5-3.1 5.7 0 9.9 2.2 4.3 2.2 6.8 5.6v-7.1h10.1v48.3h-10.1v-7.2q-2.5 3.4-6.9 5.7-4.3 2.3-10 2.3-6.2 0-11.3-3.2-5.2-3.2-8.3-8.9-2.9-5.8-2.9-13zm39.4 0.1q0-5-2.1-8.6-2-3.7-5.3-5.6-3.3-2-7.2-2-3.8 0-7.2 2-3.3 1.8-5.4 5.5-2 3.6-2 8.6 0 4.9 2 8.7 2.1 3.8 5.4 5.8 3.5 1.9 7.2 1.9 3.9 0 7.2-1.9 3.3-1.9 5.3-5.6 2.1-3.8 2.1-8.8zm43.4-15.9h-8.9v40.1h-10v-40.1h-5.7v-8.2h5.7v-3.4q0-8.3 4.3-12 4.5-3.9 14-3.9v8.3q-4.6 0-6.4 1.8-1.9 1.6-1.9 5.8v3.4h8.9zm5.6 15.8q0-7.3 2.9-12.9 3.1-5.6 8.3-8.6 5.2-3.2 11.5-3.2 5.7 0 9.9 2.3 4.3 2.2 6.9 5.5v-7h10v48.2h-10v-7.1q-2.6 3.4-7 5.7-4.3 2.2-9.9 2.2-6.3 0-11.4-3.1-5.2-3.3-8.3-8.9-2.9-5.8-2.9-13.1zm39.5 0.2q0-5-2.1-8.7-2.1-3.7-5.4-5.6-3.3-1.9-7.2-1.9-3.8 0-7.1 1.9-3.4 1.9-5.5 5.5-2 3.6-2 8.6 0 5 2 8.8 2.1 3.7 5.5 5.7 3.4 2 7.1 2 3.9 0 7.2-2 3.3-1.9 5.4-5.6 2.1-3.7 2.1-8.7zm33.1-40.6v64.7h-10v-64.7z"/>
	<path fill-rule="evenodd" class="s3" d="m90.1 251.9l-22.9 60.9h-11.5l-23-60.9h10.7l18 50.6 18.2-50.6zm52.5 35.6q0 2.7-0.3 4.9h-36.9q0.4 5.8 4.3 9.3 3.8 3.5 9.5 3.5 8 0 11.3-6.8h10.8q-2.2 6.7-8 11-5.7 4.2-14.1 4.2-7 0-12.5-3.1-5.4-3.1-8.6-8.7-3-5.7-3-13.2 0-7.4 3-13 3-5.7 8.4-8.8 5.6-3 12.7-3 6.8 0 12.1 2.9 5.4 3 8.3 8.4 3 5.4 3 12.4zm-10.4-3.2q-0.1-5.5-3.9-8.8-3.9-3.3-9.6-3.3-5.2 0-8.8 3.3-3.7 3.2-4.4 8.8zm44.6-20.5q5.7 0 10.1 2.3 4.6 2.4 7.1 7 2.6 4.7 2.6 11.2v28.5h-9.9v-27q0-6.5-3.3-9.9-3.2-3.5-8.8-3.5-5.6 0-8.9 3.5-3.3 3.4-3.3 9.9v27h-10v-48.3h10v5.6q2.5-3 6.2-4.7 3.9-1.6 8.2-1.6zm29.2 24.6q0-7.2 2.9-12.8 3.1-5.6 8.3-8.7 5.2-3.1 11.6-3.1 4.7 0 9.3 2.1 4.6 2 7.4 5.4v-23.3h10v64.8h-10v-7.3q-2.5 3.5-6.9 5.8-4.3 2.3-9.9 2.3-6.3 0-11.5-3.2-5.2-3.2-8.3-8.9-2.9-5.8-2.9-13.1zm39.5 0.2q0-5-2.2-8.6-2-3.7-5.3-5.6-3.3-2-7.2-2-3.8 0-7.2 2-3.3 1.8-5.4 5.5-2 3.6-2 8.5 0 5 2 8.8 2.1 3.8 5.4 5.8 3.5 1.9 7.2 1.9 3.9 0 7.2-1.9 3.3-1.9 5.3-5.6 2.2-3.8 2.2-8.8zm44.1 25q-6.9 0-12.4-3.1-5.5-3.1-8.7-8.7-3.1-5.7-3.1-13.2 0-7.3 3.2-13 3.3-5.7 8.9-8.8 5.6-3 12.5-3 6.9 0 12.5 3 5.6 3.1 8.9 8.8 3.2 5.7 3.2 13 0 7.4-3.3 13.1-3.4 5.7-9.1 8.8-5.7 3.1-12.6 3.1zm0-8.7q3.8 0 7.1-1.8 3.4-1.9 5.5-5.5 2.2-3.7 2.1-9 0.1-5.2-2-8.8-2-3.7-5.3-5.5-3.3-1.9-7.2-1.9-3.8 0-7.2 1.9-3.2 1.8-5.1 5.5-2 3.6-2 8.8 0 7.8 4 12.1 4 4.2 10.1 4.2zm44.8-33.3q2.2-3.7 5.8-5.7 3.7-2.1 8.7-2.1v10.3h-2.6q-5.8 0-8.9 3-3 2.9-3 10.3v25.4h-9.9v-48.3h9.9zm41.2 42.1q-5.7 0-10.3-2-4.4-2.1-7.1-5.6-2.6-3.6-2.8-8h10.4q0.2 3.1 2.9 5.2 2.7 2 6.7 2 4.2 0 6.5-1.6 2.3-1.7 2.3-4.2 0-2.7-2.6-4-2.5-1.4-8.1-2.9-5.5-1.5-8.9-2.9-3.4-1.4-5.9-4.3-2.5-2.9-2.5-7.6 0-3.9 2.3-7 2.3-3.3 6.5-5.1 4.3-1.8 9.8-1.8 8.2 0 13.2 4.2 5.1 4.1 5.4 11.3h-9.9q-0.3-3.3-2.7-5.2-2.3-1.9-6.4-1.9-3.9 0-6 1.4-2.1 1.5-2.1 4 0 1.9 1.4 3.2 1.4 1.3 3.4 2.1 2 0.7 6 1.9 5.2 1.4 8.5 2.9 3.5 1.4 5.9 4.2 2.5 2.8 2.5 7.4 0 4.1-2.2 7.4-2.3 3.2-6.5 5-4.1 1.9-9.7 1.9z"/>
	<path fill-rule="evenodd" class="s3" d="m-171.4 334.5l-4.3 8.2v4.7h-2.1v-4.7l-4.3-8.2h2.3l3 6.3 3-6.3zm18.8 13q-1.8 0-3.3-0.8-1.5-0.9-2.4-2.4-0.9-1.5-0.9-3.4 0-1.9 0.9-3.4 0.9-1.5 2.4-2.3 1.5-0.9 3.3-0.9 1.8 0 3.3 0.9 1.5 0.8 2.4 2.3 0.9 1.5 0.9 3.4 0 1.9-0.9 3.4-0.9 1.5-2.4 2.4-1.5 0.8-3.3 0.8zm0-1.8q1.3 0 2.3-0.6 1-0.6 1.5-1.7 0.6-1.1 0.6-2.5 0-1.4-0.6-2.5-0.5-1.1-1.5-1.7-1-0.5-2.3-0.5-1.3 0-2.3 0.5-1 0.6-1.6 1.7-0.5 1.1-0.5 2.5 0 1.4 0.5 2.5 0.6 1.1 1.6 1.7 1 0.6 2.3 0.6zm22-11.2v8.2q0 1.5 0.7 2.2 0.8 0.8 2.2 0.8 1.4 0 2.1-0.8 0.8-0.7 0.8-2.2v-8.2h2.1v8.2q0 1.6-0.6 2.7-0.7 1.1-1.9 1.6-1.1 0.5-2.5 0.5-1.4 0-2.6-0.5-1.1-0.5-1.8-1.6-0.7-1.1-0.7-2.7v-8.2zm28.7 12.9l-3-5.2h-1.6v5.2h-2.1v-12.9h4.4q1.5 0 2.5 0.5 1.1 0.5 1.6 1.4 0.5 0.9 0.5 1.9 0 1.3-0.7 2.3-0.8 1.1-2.3 1.4l3.2 5.4zm-4.6-6.9h2.3q1.2 0 1.8-0.6 0.7-0.6 0.7-1.6 0-1-0.6-1.5-0.6-0.6-1.9-0.6h-2.3zm48-6.1l-4.9 13h-2.5l-4.8-13h2.2l3.9 10.8 3.8-10.8zm15.1 0v13h-2.1v-13zm18.2 13.1q-1.3 0-2.4-0.5-1-0.4-1.6-1.3-0.6-0.8-0.6-1.9h2.3q0.1 0.8 0.6 1.4 0.6 0.5 1.7 0.5 1.1 0 1.7-0.5 0.6-0.6 0.6-1.4 0-0.6-0.4-1.1-0.3-0.4-0.9-0.6-0.6-0.2-1.6-0.5-1.3-0.3-2.1-0.6-0.7-0.4-1.3-1.1-0.6-0.7-0.6-2 0-1.1 0.6-1.9 0.6-0.8 1.6-1.3 1-0.4 2.3-0.4 1.9 0 3.1 0.9 1.2 0.9 1.3 2.6h-2.3q-0.1-0.7-0.7-1.2-0.6-0.5-1.6-0.5-0.9 0-1.5 0.4-0.6 0.5-0.6 1.4 0 0.6 0.4 1 0.3 0.3 0.9 0.6 0.5 0.2 1.5 0.4 1.3 0.4 2.1 0.7 0.8 0.4 1.4 1.1 0.6 0.8 0.6 2 0 1-0.6 1.9-0.5 0.8-1.5 1.4-1 0.5-2.4 0.5zm20.3-13.1v13h-2.2v-13zm19.9 13.1q-1.8 0-3.3-0.8-1.6-0.9-2.5-2.4-0.8-1.5-0.8-3.4 0-1.9 0.8-3.4 0.9-1.5 2.5-2.4 1.5-0.8 3.3-0.8 1.8 0 3.3 0.8 1.5 0.9 2.4 2.4 0.9 1.5 0.9 3.4 0 1.9-0.9 3.4-0.9 1.5-2.4 2.4-1.5 0.8-3.3 0.8zm0-1.8q1.3 0 2.3-0.6 1-0.6 1.5-1.7 0.6-1.1 0.6-2.5 0-1.5-0.6-2.5-0.5-1.1-1.5-1.7-1-0.6-2.3-0.6-1.3 0-2.3 0.6-1 0.6-1.6 1.7-0.5 1-0.5 2.5 0 1.4 0.5 2.5 0.6 1.1 1.6 1.7 1 0.6 2.3 0.6zm30.5 1.7h-2.1l-6.4-9.7v9.7h-2.2v-13h2.2l6.4 9.7v-9.7h2.1zm16.3-2.5l-2.3 5.1h-1.4l1.3-5.1zm35 2.6q-1.8 0-3.4-0.8-1.5-0.9-2.4-2.4-0.8-1.5-0.8-3.4 0-1.9 0.8-3.4 0.9-1.5 2.4-2.3 1.6-0.9 3.4-0.9 1.8 0 3.3 0.9 1.5 0.8 2.4 2.3 0.9 1.5 0.9 3.4 0 1.9-0.9 3.4-0.9 1.5-2.4 2.4-1.5 0.8-3.3 0.8zm0-1.8q1.3 0 2.3-0.6 1-0.6 1.5-1.7 0.6-1.1 0.6-2.5 0-1.4-0.6-2.5-0.5-1.1-1.5-1.7-1-0.5-2.3-0.5-1.3 0-2.3 0.5-1 0.6-1.6 1.7-0.6 1.1-0.6 2.5 0 1.4 0.6 2.5 0.6 1.1 1.6 1.7 1 0.6 2.3 0.6zm21.9-11.2v8.2q0 1.5 0.8 2.2 0.8 0.8 2.2 0.8 1.4 0 2.1-0.8 0.8-0.7 0.8-2.2v-8.2h2.1v8.2q0 1.6-0.7 2.7-0.7 1.1-1.8 1.6-1.2 0.5-2.6 0.5-1.4 0-2.5-0.5-1.1-0.5-1.8-1.6-0.7-1.1-0.7-2.7v-8.2zm28.7 12.9l-3-5.2h-1.6v5.2h-2.2v-12.9h4.5q1.5 0 2.5 0.5 1.1 0.5 1.6 1.4 0.5 0.9 0.5 1.9 0 1.3-0.8 2.4-0.7 1-2.2 1.3l3.2 5.4zm-4.6-6.9h2.3q1.2 0 1.8-0.6 0.6-0.6 0.6-1.6 0-1-0.6-1.5-0.6-0.6-1.8-0.6h-2.3zm38.9-6.1v13h-2.1v-13zm24.6 13h-2.1l-6.4-9.7v9.7h-2.1v-13h2.1l6.4 9.7v-9.7h2.1zm24.6 0h-2.2l-6.3-9.6v9.6h-2.2v-12.9h2.2l6.3 9.6v-9.6h2.2zm19.8 0.1q-1.8 0-3.3-0.8-1.5-0.9-2.4-2.4-0.9-1.5-0.9-3.4 0-1.9 0.9-3.4 0.9-1.5 2.4-2.4 1.5-0.8 3.3-0.8 1.8 0 3.4 0.8 1.5 0.9 2.4 2.4 0.8 1.5 0.8 3.4 0 1.9-0.8 3.4-0.9 1.5-2.4 2.4-1.6 0.8-3.4 0.8zm0-1.8q1.3 0 2.3-0.6 1-0.6 1.6-1.7 0.5-1.1 0.5-2.5 0-1.5-0.5-2.5-0.6-1.1-1.6-1.7-1-0.6-2.3-0.6-1.3 0-2.3 0.6-1 0.6-1.6 1.7-0.5 1-0.5 2.5 0 1.4 0.5 2.5 0.6 1.1 1.6 1.7 1 0.6 2.3 0.6zm31-11.3l-4.8 13h-2.5l-4.9-13h2.3l3.8 10.8 3.9-10.8zm20.7 10.3h-5.4l-0.9 2.7h-2.2l4.6-13h2.5l4.6 13h-2.2zm-0.6-1.8l-2.1-6-2.2 6zm25.3-8.5v1.7h-3.4v11.2h-2.1v-11.2h-3.5v-1.7zm15.5 0v12.9h-2.2v-12.9zm19.9 13q-1.8 0-3.3-0.8-1.5-0.9-2.4-2.4-0.9-1.5-0.9-3.4 0-1.9 0.9-3.4 0.9-1.5 2.4-2.3 1.5-0.9 3.3-0.9 1.8 0 3.3 0.9 1.6 0.8 2.4 2.3 0.9 1.5 0.9 3.4 0 1.9-0.9 3.4-0.8 1.5-2.4 2.4-1.5 0.8-3.3 0.8zm0-1.8q1.3 0 2.3-0.6 1-0.6 1.5-1.7 0.6-1.1 0.6-2.5 0-1.4-0.6-2.5-0.5-1.1-1.5-1.7-1-0.5-2.3-0.5-1.3 0-2.3 0.5-1 0.6-1.6 1.7-0.5 1.1-0.5 2.5 0 1.4 0.5 2.5 0.6 1.1 1.6 1.7 1 0.6 2.3 0.6zm30.5 1.7h-2.1l-6.4-9.7v9.7h-2.1v-12.9h2.1l6.4 9.6v-9.6h2.1z"/>
</svg>